G04 #@! TF.GenerationSoftware,KiCad,Pcbnew,(6.0.0-rc1-dev-135-gb4df06c)*
G04 #@! TF.CreationDate,2018-08-29T17:08:20+03:00*
G04 #@! TF.ProjectId,leaf-moist-sensor,6C6561662D6D6F6973742D73656E736F,rev?*
G04 #@! TF.SameCoordinates,Original*
G04 #@! TF.FileFunction,Copper,L1,Top,Signal*
G04 #@! TF.FilePolarity,Positive*
%FSLAX46Y46*%
G04 Gerber Fmt 4.6, Leading zero omitted, Abs format (unit mm)*
G04 Created by KiCad (PCBNEW (6.0.0-rc1-dev-135-gb4df06c)) date 2018 August 29, Wednesday 17:08:20*
%MOMM*%
%LPD*%
G01*
G04 APERTURE LIST*
G04 #@! TA.AperFunction,SMDPad,CuDef*
%ADD10R,0.500000X0.900000*%
G04 #@! TD*
G04 #@! TA.AperFunction,ComponentPad*
%ADD11O,1.700000X1.700000*%
G04 #@! TD*
G04 #@! TA.AperFunction,ComponentPad*
%ADD12R,1.700000X1.700000*%
G04 #@! TD*
G04 #@! TA.AperFunction,Conductor*
%ADD13C,0.250000*%
G04 #@! TD*
G04 #@! TA.AperFunction,Conductor*
%ADD14C,0.700000*%
G04 #@! TD*
G04 #@! TA.AperFunction,Conductor*
%ADD15C,0.254000*%
G04 #@! TD*
G04 APERTURE END LIST*
D10*
G04 #@! TO.P,R4,2*
G04 #@! TO.N,/EXCITATION*
X132550000Y-60400000D03*
G04 #@! TO.P,R4,1*
G04 #@! TO.N,/SENSOR_TRACK*
X134050000Y-60400000D03*
G04 #@! TD*
D11*
G04 #@! TO.P,P1,2*
G04 #@! TO.N,GND*
X135390000Y-57850000D03*
D12*
G04 #@! TO.P,P1,1*
G04 #@! TO.N,/EXCITATION*
X132850000Y-57850000D03*
G04 #@! TD*
D13*
G04 #@! TO.N,/EXCITATION*
X132550000Y-57550000D02*
X132850000Y-57250000D01*
D14*
X132850000Y-60100000D02*
X132550000Y-60400000D01*
X132850000Y-57850000D02*
X132850000Y-60100000D01*
G04 #@! TO.N,/SENSOR_TRACK*
X134050000Y-62500000D02*
X134050000Y-114600000D01*
X134100000Y-63000000D02*
X149627717Y-63000000D01*
X134100000Y-65400000D02*
X152733035Y-65400000D01*
X134100000Y-67800000D02*
X155117850Y-67800000D01*
X134100000Y-70200000D02*
X157008295Y-70200000D01*
X134100000Y-72600000D02*
X158519459Y-72600000D01*
X134100000Y-75000000D02*
X159718548Y-75000000D01*
X134100000Y-77400000D02*
X160647881Y-77400000D01*
X134100000Y-79800000D02*
X161335088Y-79800000D01*
X134100000Y-82200000D02*
X161798195Y-82200000D01*
X134100000Y-84600000D02*
X162048345Y-84600000D01*
X134100000Y-87000000D02*
X162091249Y-87000000D01*
X134100000Y-89400000D02*
X161927864Y-89400000D01*
X134100000Y-91800000D02*
X161554508Y-91800000D01*
X134100000Y-94200000D02*
X160962427Y-94200000D01*
X134100000Y-96600000D02*
X160136705Y-96600000D01*
X134100000Y-99000000D02*
X159054158Y-99000000D01*
X134100000Y-101400000D02*
X157679440Y-101400000D01*
X134100000Y-103800000D02*
X155957493Y-103800000D01*
X134100000Y-106200000D02*
X153797462Y-106200000D01*
X134100000Y-108600000D02*
X151032513Y-108600000D01*
X134100000Y-111000000D02*
X147287494Y-111000000D01*
X134100000Y-113400000D02*
X141142017Y-113400000D01*
X134050000Y-61800000D02*
X120494558Y-61800000D01*
X134050000Y-64200000D02*
X116857269Y-64200000D01*
X134050000Y-66600000D02*
X114152513Y-66600000D01*
X134050000Y-69000000D02*
X112033870Y-69000000D01*
X134050000Y-71400000D02*
X110343672Y-71400000D01*
X134050000Y-73800000D02*
X108995060Y-73800000D01*
X134050000Y-76200000D02*
X107935062Y-76200000D01*
X134050000Y-78600000D02*
X107129562Y-78600000D01*
X134050000Y-81000000D02*
X106556183Y-81000000D01*
X134050000Y-83400000D02*
X106200583Y-83400000D01*
X134050000Y-85800000D02*
X106054465Y-85800000D01*
X134050000Y-88200000D02*
X106114539Y-88200000D01*
X134050000Y-90600000D02*
X106382149Y-90600000D01*
X134050000Y-93000000D02*
X106863422Y-93000000D01*
X134050000Y-95400000D02*
X107570008Y-95400000D01*
X134050000Y-97800000D02*
X108520605Y-97800000D01*
X134050000Y-100200000D02*
X109743828Y-100200000D01*
X134050000Y-102600000D02*
X111283577Y-102600000D01*
X134050000Y-105000000D02*
X113209894Y-105000000D01*
X134050000Y-107400000D02*
X115643751Y-107400000D01*
X134050000Y-109800000D02*
X118826663Y-109800000D01*
X134050000Y-112200000D02*
X123410921Y-112200000D01*
X134100000Y-63000000D02*
X149627717Y-63000000D01*
X134100000Y-65400000D02*
X152733035Y-65400000D01*
X134100000Y-67800000D02*
X155117850Y-67800000D01*
X134100000Y-70200000D02*
X157008295Y-70200000D01*
X134100000Y-72600000D02*
X158519459Y-72600000D01*
X134100000Y-75000000D02*
X159718548Y-75000000D01*
X134100000Y-77400000D02*
X160647881Y-77400000D01*
X134100000Y-79800000D02*
X161335088Y-79800000D01*
X134100000Y-82200000D02*
X161798195Y-82200000D01*
X134100000Y-84600000D02*
X162048345Y-84600000D01*
X134100000Y-87000000D02*
X162091249Y-87000000D01*
X134100000Y-89400000D02*
X161927864Y-89400000D01*
X134100000Y-91800000D02*
X161554508Y-91800000D01*
X134100000Y-94200000D02*
X160962427Y-94200000D01*
X134100000Y-96600000D02*
X160136705Y-96600000D01*
X134100000Y-99000000D02*
X159054158Y-99000000D01*
X134100000Y-101400000D02*
X157679440Y-101400000D01*
X134100000Y-103800000D02*
X155957493Y-103800000D01*
X134100000Y-106200000D02*
X153797462Y-106200000D01*
X134100000Y-108600000D02*
X151032513Y-108600000D01*
X134100000Y-111000000D02*
X147287494Y-111000000D01*
X134100000Y-113400000D02*
X141142017Y-113400000D01*
X134050000Y-61800000D02*
X120494558Y-61800000D01*
X134050000Y-64200000D02*
X116857269Y-64200000D01*
X134050000Y-66600000D02*
X114152513Y-66600000D01*
X134050000Y-69000000D02*
X112033870Y-69000000D01*
X134050000Y-71400000D02*
X110343672Y-71400000D01*
X134050000Y-73800000D02*
X108995060Y-73800000D01*
X134050000Y-76200000D02*
X107935062Y-76200000D01*
X134050000Y-78600000D02*
X107129562Y-78600000D01*
X134050000Y-81000000D02*
X106556183Y-81000000D01*
X134050000Y-83400000D02*
X106200583Y-83400000D01*
X134050000Y-85800000D02*
X106054465Y-85800000D01*
X134050000Y-88200000D02*
X106114539Y-88200000D01*
X134050000Y-90600000D02*
X106382149Y-90600000D01*
X134050000Y-93000000D02*
X106863422Y-93000000D01*
X134050000Y-95400000D02*
X107570008Y-95400000D01*
X134050000Y-97800000D02*
X108520605Y-97800000D01*
X134050000Y-100200000D02*
X109743828Y-100200000D01*
X134050000Y-102600000D02*
X111283577Y-102600000D01*
X134050000Y-105000000D02*
X113209894Y-105000000D01*
X134050000Y-107400000D02*
X115643751Y-107400000D01*
X134050000Y-109800000D02*
X118826663Y-109800000D01*
X134050000Y-112200000D02*
X123410921Y-112200000D01*
X134050000Y-60400000D02*
X134050000Y-62500000D01*
G04 #@! TO.N,GND*
X136239999Y-58699999D02*
X136249999Y-58699999D01*
X135390000Y-57850000D02*
X136239999Y-58699999D01*
X136249999Y-58699999D02*
X136700000Y-59150000D01*
G04 #@! TD*
D15*
G04 #@! TO.N,GND*
G36*
X136080120Y-56521120D02*
X138204039Y-56742479D01*
X140306695Y-57115126D01*
X142377327Y-57637154D01*
X144405335Y-58305891D01*
X146380341Y-59117914D01*
X148292235Y-60069067D01*
X150131230Y-61154481D01*
X151887915Y-62368601D01*
X153553298Y-63705212D01*
X155118855Y-65157473D01*
X156576572Y-66717950D01*
X157918988Y-68378657D01*
X159139232Y-70131093D01*
X160231059Y-71966289D01*
X161188879Y-73874851D01*
X162007792Y-75847010D01*
X162683604Y-77872672D01*
X163212856Y-79941469D01*
X163592841Y-82042812D01*
X163821612Y-84165944D01*
X163898000Y-86300000D01*
X163848507Y-88018171D01*
X163649401Y-90144291D01*
X163298793Y-92250734D01*
X162798476Y-94326719D01*
X162151013Y-96361619D01*
X161359716Y-98345020D01*
X160428637Y-100266769D01*
X159362540Y-102117030D01*
X158166882Y-103886333D01*
X156847784Y-105565621D01*
X155411997Y-107146299D01*
X153866870Y-108620277D01*
X152220311Y-109980011D01*
X150480749Y-111218539D01*
X148657087Y-112329524D01*
X146758660Y-113307278D01*
X144795185Y-114146797D01*
X142776711Y-114843784D01*
X140713569Y-115394672D01*
X138616321Y-115796641D01*
X136495701Y-116047633D01*
X134362562Y-116146363D01*
X132227823Y-116092327D01*
X130102411Y-115885801D01*
X127997205Y-115527842D01*
X125922979Y-115020283D01*
X123890351Y-114365720D01*
X121909725Y-113567505D01*
X119991237Y-112629723D01*
X118144709Y-111557174D01*
X116379591Y-110355347D01*
X114704917Y-109030395D01*
X113129260Y-107589099D01*
X111660685Y-106038837D01*
X110306708Y-104387542D01*
X109074259Y-102643667D01*
X107969647Y-100816138D01*
X106998525Y-98914310D01*
X106165865Y-96947916D01*
X105475928Y-94927021D01*
X104932245Y-92861970D01*
X104537600Y-90763331D01*
X104294011Y-88641847D01*
X104202727Y-86508377D01*
X104264215Y-84373840D01*
X104478158Y-82249162D01*
X104843464Y-80145217D01*
X105358261Y-78072776D01*
X106019915Y-76042445D01*
X106825039Y-74064617D01*
X107769512Y-72149415D01*
X108848500Y-70306642D01*
X110056480Y-68545729D01*
X111387270Y-66875691D01*
X112834057Y-65305075D01*
X114389437Y-63841920D01*
X116045448Y-62493715D01*
X117793614Y-61267361D01*
X119624987Y-60169135D01*
X121530194Y-59204658D01*
X123499483Y-58378867D01*
X125522774Y-57695988D01*
X127589710Y-57159517D01*
X128687051Y-56957127D01*
X127744155Y-60823000D01*
X120398335Y-60823000D01*
X120113352Y-60879687D01*
X119790181Y-61095623D01*
X119574245Y-61418794D01*
X119498418Y-61800000D01*
X119574245Y-62181206D01*
X119790181Y-62504377D01*
X120113352Y-62720313D01*
X120398335Y-62777000D01*
X133073000Y-62777000D01*
X133073000Y-63223000D01*
X116761046Y-63223000D01*
X116476063Y-63279687D01*
X116152892Y-63495623D01*
X115936956Y-63818794D01*
X115861129Y-64200000D01*
X115936956Y-64581206D01*
X116152892Y-64904377D01*
X116476063Y-65120313D01*
X116761046Y-65177000D01*
X133073000Y-65177000D01*
X133073000Y-65623000D01*
X114056290Y-65623000D01*
X113771307Y-65679687D01*
X113448136Y-65895623D01*
X113232200Y-66218794D01*
X113156373Y-66600000D01*
X113232200Y-66981206D01*
X113448136Y-67304377D01*
X113771307Y-67520313D01*
X114056290Y-67577000D01*
X133073000Y-67577000D01*
X133073000Y-68023000D01*
X111937647Y-68023000D01*
X111652664Y-68079687D01*
X111329493Y-68295623D01*
X111113557Y-68618794D01*
X111037730Y-69000000D01*
X111113557Y-69381206D01*
X111329493Y-69704377D01*
X111652664Y-69920313D01*
X111937647Y-69977000D01*
X133073000Y-69977000D01*
X133073000Y-70423000D01*
X110247449Y-70423000D01*
X109962466Y-70479687D01*
X109639295Y-70695623D01*
X109423359Y-71018794D01*
X109347532Y-71400000D01*
X109423359Y-71781206D01*
X109639295Y-72104377D01*
X109962466Y-72320313D01*
X110247449Y-72377000D01*
X133073000Y-72377000D01*
X133073000Y-72823000D01*
X108898837Y-72823000D01*
X108613854Y-72879687D01*
X108290683Y-73095623D01*
X108074747Y-73418794D01*
X107998920Y-73800000D01*
X108074747Y-74181206D01*
X108290683Y-74504377D01*
X108613854Y-74720313D01*
X108898837Y-74777000D01*
X133073000Y-74777000D01*
X133073000Y-75223000D01*
X107838839Y-75223000D01*
X107553856Y-75279687D01*
X107230685Y-75495623D01*
X107014749Y-75818794D01*
X106938922Y-76200000D01*
X107014749Y-76581206D01*
X107230685Y-76904377D01*
X107553856Y-77120313D01*
X107838839Y-77177000D01*
X133073000Y-77177000D01*
X133073000Y-77623000D01*
X107033339Y-77623000D01*
X106748356Y-77679687D01*
X106425185Y-77895623D01*
X106209249Y-78218794D01*
X106133422Y-78600000D01*
X106209249Y-78981206D01*
X106425185Y-79304377D01*
X106748356Y-79520313D01*
X107033339Y-79577000D01*
X133073000Y-79577000D01*
X133073000Y-80023000D01*
X106459960Y-80023000D01*
X106174977Y-80079687D01*
X105851806Y-80295623D01*
X105635870Y-80618794D01*
X105560043Y-81000000D01*
X105635870Y-81381206D01*
X105851806Y-81704377D01*
X106174977Y-81920313D01*
X106459960Y-81977000D01*
X133073000Y-81977000D01*
X133073000Y-82423000D01*
X106104360Y-82423000D01*
X105819377Y-82479687D01*
X105496206Y-82695623D01*
X105280270Y-83018794D01*
X105204443Y-83400000D01*
X105280270Y-83781206D01*
X105496206Y-84104377D01*
X105819377Y-84320313D01*
X106104360Y-84377000D01*
X133073000Y-84377000D01*
X133073000Y-84823000D01*
X105958242Y-84823000D01*
X105673259Y-84879687D01*
X105350088Y-85095623D01*
X105134152Y-85418794D01*
X105058325Y-85800000D01*
X105134152Y-86181206D01*
X105350088Y-86504377D01*
X105673259Y-86720313D01*
X105958242Y-86777000D01*
X133073000Y-86777000D01*
X133073000Y-87223000D01*
X106018316Y-87223000D01*
X105733333Y-87279687D01*
X105410162Y-87495623D01*
X105194226Y-87818794D01*
X105118399Y-88200000D01*
X105194226Y-88581206D01*
X105410162Y-88904377D01*
X105733333Y-89120313D01*
X106018316Y-89177000D01*
X133073001Y-89177000D01*
X133073001Y-89623000D01*
X106285926Y-89623000D01*
X106000943Y-89679687D01*
X105677772Y-89895623D01*
X105461836Y-90218794D01*
X105386009Y-90600000D01*
X105461836Y-90981206D01*
X105677772Y-91304377D01*
X106000943Y-91520313D01*
X106285926Y-91577000D01*
X133073001Y-91577000D01*
X133073001Y-92023000D01*
X106767199Y-92023000D01*
X106482216Y-92079687D01*
X106159045Y-92295623D01*
X105943109Y-92618794D01*
X105867282Y-93000000D01*
X105943109Y-93381206D01*
X106159045Y-93704377D01*
X106482216Y-93920313D01*
X106767199Y-93977000D01*
X133073001Y-93977000D01*
X133073001Y-94423000D01*
X107473785Y-94423000D01*
X107188802Y-94479687D01*
X106865631Y-94695623D01*
X106649695Y-95018794D01*
X106573868Y-95400000D01*
X106649695Y-95781206D01*
X106865631Y-96104377D01*
X107188802Y-96320313D01*
X107473785Y-96377000D01*
X133073001Y-96377000D01*
X133073001Y-96823000D01*
X108424382Y-96823000D01*
X108139399Y-96879687D01*
X107816228Y-97095623D01*
X107600292Y-97418794D01*
X107524465Y-97800000D01*
X107600292Y-98181206D01*
X107816228Y-98504377D01*
X108139399Y-98720313D01*
X108424382Y-98777000D01*
X133073001Y-98777000D01*
X133073001Y-99223000D01*
X109647605Y-99223000D01*
X109362622Y-99279687D01*
X109039451Y-99495623D01*
X108823515Y-99818794D01*
X108747688Y-100200000D01*
X108823515Y-100581206D01*
X109039451Y-100904377D01*
X109362622Y-101120313D01*
X109647605Y-101177000D01*
X133073001Y-101177000D01*
X133073001Y-101623000D01*
X111187354Y-101623000D01*
X110902371Y-101679687D01*
X110579200Y-101895623D01*
X110363264Y-102218794D01*
X110287437Y-102600000D01*
X110363264Y-102981206D01*
X110579200Y-103304377D01*
X110902371Y-103520313D01*
X111187354Y-103577000D01*
X133073001Y-103577000D01*
X133073001Y-104023000D01*
X113113671Y-104023000D01*
X112828688Y-104079687D01*
X112505517Y-104295623D01*
X112289581Y-104618794D01*
X112213754Y-105000000D01*
X112289581Y-105381206D01*
X112505517Y-105704377D01*
X112828688Y-105920313D01*
X113113671Y-105977000D01*
X133073001Y-105977000D01*
X133073001Y-106423000D01*
X115547528Y-106423000D01*
X115262545Y-106479687D01*
X114939374Y-106695623D01*
X114723438Y-107018794D01*
X114647611Y-107400000D01*
X114723438Y-107781206D01*
X114939374Y-108104377D01*
X115262545Y-108320313D01*
X115547528Y-108377000D01*
X133073001Y-108377000D01*
X133073001Y-108823000D01*
X118730440Y-108823000D01*
X118445457Y-108879687D01*
X118122286Y-109095623D01*
X117906350Y-109418794D01*
X117830523Y-109800000D01*
X117906350Y-110181206D01*
X118122286Y-110504377D01*
X118445457Y-110720313D01*
X118730440Y-110777000D01*
X133073001Y-110777000D01*
X133073001Y-111223000D01*
X123314698Y-111223000D01*
X123029715Y-111279687D01*
X122706544Y-111495623D01*
X122490608Y-111818794D01*
X122414781Y-112200000D01*
X122490608Y-112581206D01*
X122706544Y-112904377D01*
X123029715Y-113120313D01*
X123314698Y-113177000D01*
X133073001Y-113177000D01*
X133073001Y-114696223D01*
X133129688Y-114981206D01*
X133345624Y-115304377D01*
X133668795Y-115520313D01*
X134050000Y-115596140D01*
X134431206Y-115520313D01*
X134754377Y-115304377D01*
X134970313Y-114981206D01*
X135027000Y-114696223D01*
X135027000Y-114377000D01*
X141238240Y-114377000D01*
X141523223Y-114320313D01*
X141846394Y-114104377D01*
X142062330Y-113781206D01*
X142138157Y-113400000D01*
X142062330Y-113018794D01*
X141846394Y-112695623D01*
X141523223Y-112479687D01*
X141238240Y-112423000D01*
X135027000Y-112423000D01*
X135027000Y-112296223D01*
X135046140Y-112200000D01*
X135027000Y-112103777D01*
X135027000Y-111977000D01*
X147383717Y-111977000D01*
X147668700Y-111920313D01*
X147991871Y-111704377D01*
X148207807Y-111381206D01*
X148283634Y-111000000D01*
X148207807Y-110618794D01*
X147991871Y-110295623D01*
X147668700Y-110079687D01*
X147383717Y-110023000D01*
X135027000Y-110023000D01*
X135027000Y-109896223D01*
X135046140Y-109800000D01*
X135027000Y-109703777D01*
X135027000Y-109577000D01*
X151128736Y-109577000D01*
X151413719Y-109520313D01*
X151736890Y-109304377D01*
X151952826Y-108981206D01*
X152028653Y-108600000D01*
X151952826Y-108218794D01*
X151736890Y-107895623D01*
X151413719Y-107679687D01*
X151128736Y-107623000D01*
X135027000Y-107623000D01*
X135027000Y-107496223D01*
X135046140Y-107400000D01*
X135027000Y-107303777D01*
X135027000Y-107177000D01*
X153893685Y-107177000D01*
X154178668Y-107120313D01*
X154501839Y-106904377D01*
X154717775Y-106581206D01*
X154793602Y-106200000D01*
X154717775Y-105818794D01*
X154501839Y-105495623D01*
X154178668Y-105279687D01*
X153893685Y-105223000D01*
X135027000Y-105223000D01*
X135027000Y-105096223D01*
X135046140Y-105000000D01*
X135027000Y-104903777D01*
X135027000Y-104777000D01*
X156053716Y-104777000D01*
X156338699Y-104720313D01*
X156661870Y-104504377D01*
X156877806Y-104181206D01*
X156953633Y-103800000D01*
X156877806Y-103418794D01*
X156661870Y-103095623D01*
X156338699Y-102879687D01*
X156053716Y-102823000D01*
X135027000Y-102823000D01*
X135027000Y-102696223D01*
X135046140Y-102600000D01*
X135027000Y-102503777D01*
X135027000Y-102377000D01*
X157775663Y-102377000D01*
X158060646Y-102320313D01*
X158383817Y-102104377D01*
X158599753Y-101781206D01*
X158675580Y-101400000D01*
X158599753Y-101018794D01*
X158383817Y-100695623D01*
X158060646Y-100479687D01*
X157775663Y-100423000D01*
X135027000Y-100423000D01*
X135027000Y-100296223D01*
X135046140Y-100200000D01*
X135027000Y-100103777D01*
X135027000Y-99977000D01*
X159150381Y-99977000D01*
X159435364Y-99920313D01*
X159758535Y-99704377D01*
X159974471Y-99381206D01*
X160050298Y-99000000D01*
X159974471Y-98618794D01*
X159758535Y-98295623D01*
X159435364Y-98079687D01*
X159150381Y-98023000D01*
X135027000Y-98023000D01*
X135027000Y-97896223D01*
X135046140Y-97800000D01*
X135027000Y-97703777D01*
X135027000Y-97577000D01*
X160232928Y-97577000D01*
X160517911Y-97520313D01*
X160841082Y-97304377D01*
X161057018Y-96981206D01*
X161132845Y-96600000D01*
X161057018Y-96218794D01*
X160841082Y-95895623D01*
X160517911Y-95679687D01*
X160232928Y-95623000D01*
X135027000Y-95623000D01*
X135027000Y-95496223D01*
X135046140Y-95400000D01*
X135027000Y-95303777D01*
X135027000Y-95177000D01*
X161058650Y-95177000D01*
X161343633Y-95120313D01*
X161666804Y-94904377D01*
X161882740Y-94581206D01*
X161958567Y-94200000D01*
X161882740Y-93818794D01*
X161666804Y-93495623D01*
X161343633Y-93279687D01*
X161058650Y-93223000D01*
X135027000Y-93223000D01*
X135027000Y-93096223D01*
X135046140Y-93000000D01*
X135027000Y-92903777D01*
X135027000Y-92777000D01*
X161650731Y-92777000D01*
X161935714Y-92720313D01*
X162258885Y-92504377D01*
X162474821Y-92181206D01*
X162550648Y-91800000D01*
X162474821Y-91418794D01*
X162258885Y-91095623D01*
X161935714Y-90879687D01*
X161650731Y-90823000D01*
X135027000Y-90823000D01*
X135027000Y-90696223D01*
X135046140Y-90600000D01*
X135027000Y-90503777D01*
X135027000Y-90377000D01*
X162024087Y-90377000D01*
X162309070Y-90320313D01*
X162632241Y-90104377D01*
X162848177Y-89781206D01*
X162924004Y-89400000D01*
X162848177Y-89018794D01*
X162632241Y-88695623D01*
X162309070Y-88479687D01*
X162024087Y-88423000D01*
X135027000Y-88423000D01*
X135027000Y-88296223D01*
X135046140Y-88200000D01*
X135027000Y-88103777D01*
X135027000Y-87977000D01*
X162187472Y-87977000D01*
X162472455Y-87920313D01*
X162795626Y-87704377D01*
X163011562Y-87381206D01*
X163087389Y-87000000D01*
X163011562Y-86618794D01*
X162795626Y-86295623D01*
X162472455Y-86079687D01*
X162187472Y-86023000D01*
X135027000Y-86023000D01*
X135027000Y-85896223D01*
X135046140Y-85800000D01*
X135027000Y-85703777D01*
X135027000Y-85577000D01*
X162144568Y-85577000D01*
X162429551Y-85520313D01*
X162752722Y-85304377D01*
X162968658Y-84981206D01*
X163044485Y-84600000D01*
X162968658Y-84218794D01*
X162752722Y-83895623D01*
X162429551Y-83679687D01*
X162144568Y-83623000D01*
X135027000Y-83623000D01*
X135027000Y-83496223D01*
X135046140Y-83400000D01*
X135027000Y-83303777D01*
X135027000Y-83177000D01*
X161894418Y-83177000D01*
X162179401Y-83120313D01*
X162502572Y-82904377D01*
X162718508Y-82581206D01*
X162794335Y-82200000D01*
X162718508Y-81818794D01*
X162502572Y-81495623D01*
X162179401Y-81279687D01*
X161894418Y-81223000D01*
X135027000Y-81223000D01*
X135027000Y-81096223D01*
X135046140Y-81000000D01*
X135027000Y-80903777D01*
X135027000Y-80777000D01*
X161431311Y-80777000D01*
X161716294Y-80720313D01*
X162039465Y-80504377D01*
X162255401Y-80181206D01*
X162331228Y-79800000D01*
X162255401Y-79418794D01*
X162039465Y-79095623D01*
X161716294Y-78879687D01*
X161431311Y-78823000D01*
X135027000Y-78823000D01*
X135027000Y-78696223D01*
X135046140Y-78600000D01*
X135027000Y-78503777D01*
X135027000Y-78377000D01*
X160744104Y-78377000D01*
X161029087Y-78320313D01*
X161352258Y-78104377D01*
X161568194Y-77781206D01*
X161644021Y-77400000D01*
X161568194Y-77018794D01*
X161352258Y-76695623D01*
X161029087Y-76479687D01*
X160744104Y-76423000D01*
X135027000Y-76423000D01*
X135027000Y-76296223D01*
X135046140Y-76200000D01*
X135027000Y-76103777D01*
X135027000Y-75977000D01*
X159814771Y-75977000D01*
X160099754Y-75920313D01*
X160422925Y-75704377D01*
X160638861Y-75381206D01*
X160714688Y-75000000D01*
X160638861Y-74618794D01*
X160422925Y-74295623D01*
X160099754Y-74079687D01*
X159814771Y-74023000D01*
X135027000Y-74023000D01*
X135027000Y-73896223D01*
X135046140Y-73800000D01*
X135027000Y-73703777D01*
X135027000Y-73577000D01*
X158615682Y-73577000D01*
X158900665Y-73520313D01*
X159223836Y-73304377D01*
X159439772Y-72981206D01*
X159515599Y-72600000D01*
X159439772Y-72218794D01*
X159223836Y-71895623D01*
X158900665Y-71679687D01*
X158615682Y-71623000D01*
X135027000Y-71623000D01*
X135027000Y-71496223D01*
X135046140Y-71400000D01*
X135027000Y-71303777D01*
X135027000Y-71177000D01*
X157104518Y-71177000D01*
X157389501Y-71120313D01*
X157712672Y-70904377D01*
X157928608Y-70581206D01*
X158004435Y-70200000D01*
X157928608Y-69818794D01*
X157712672Y-69495623D01*
X157389501Y-69279687D01*
X157104518Y-69223000D01*
X135027000Y-69223000D01*
X135027000Y-69096223D01*
X135046140Y-69000000D01*
X135027000Y-68903777D01*
X135027000Y-68777000D01*
X155214073Y-68777000D01*
X155499056Y-68720313D01*
X155822227Y-68504377D01*
X156038163Y-68181206D01*
X156113990Y-67800000D01*
X156038163Y-67418794D01*
X155822227Y-67095623D01*
X155499056Y-66879687D01*
X155214073Y-66823000D01*
X135027000Y-66823000D01*
X135027000Y-66696223D01*
X135046140Y-66600000D01*
X135027000Y-66503777D01*
X135027000Y-66377000D01*
X152829258Y-66377000D01*
X153114241Y-66320313D01*
X153437412Y-66104377D01*
X153653348Y-65781206D01*
X153729175Y-65400000D01*
X153653348Y-65018794D01*
X153437412Y-64695623D01*
X153114241Y-64479687D01*
X152829258Y-64423000D01*
X135027000Y-64423000D01*
X135027000Y-64296223D01*
X135046140Y-64200000D01*
X135027000Y-64103777D01*
X135027000Y-63977000D01*
X149723940Y-63977000D01*
X150008923Y-63920313D01*
X150332094Y-63704377D01*
X150548030Y-63381206D01*
X150623857Y-63000000D01*
X150548030Y-62618794D01*
X150332094Y-62295623D01*
X150008923Y-62079687D01*
X149723940Y-62023000D01*
X135151030Y-62023000D01*
X135167333Y-61998601D01*
X135177000Y-61950000D01*
X135177000Y-59215540D01*
X135263000Y-59170155D01*
X135263000Y-57977000D01*
X135517000Y-57977000D01*
X135517000Y-59170155D01*
X135746890Y-59291476D01*
X136156924Y-59121645D01*
X136585183Y-58731358D01*
X136831486Y-58206892D01*
X136710819Y-57977000D01*
X135517000Y-57977000D01*
X135263000Y-57977000D01*
X135243000Y-57977000D01*
X135243000Y-57723000D01*
X135263000Y-57723000D01*
X135263000Y-57703000D01*
X135517000Y-57703000D01*
X135517000Y-57723000D01*
X136710819Y-57723000D01*
X136831486Y-57493108D01*
X136585183Y-56968642D01*
X136156924Y-56578355D01*
X136013546Y-56518970D01*
X136080120Y-56521120D01*
X136080120Y-56521120D01*
G37*
X136080120Y-56521120D02*
X138204039Y-56742479D01*
X140306695Y-57115126D01*
X142377327Y-57637154D01*
X144405335Y-58305891D01*
X146380341Y-59117914D01*
X148292235Y-60069067D01*
X150131230Y-61154481D01*
X151887915Y-62368601D01*
X153553298Y-63705212D01*
X155118855Y-65157473D01*
X156576572Y-66717950D01*
X157918988Y-68378657D01*
X159139232Y-70131093D01*
X160231059Y-71966289D01*
X161188879Y-73874851D01*
X162007792Y-75847010D01*
X162683604Y-77872672D01*
X163212856Y-79941469D01*
X163592841Y-82042812D01*
X163821612Y-84165944D01*
X163898000Y-86300000D01*
X163848507Y-88018171D01*
X163649401Y-90144291D01*
X163298793Y-92250734D01*
X162798476Y-94326719D01*
X162151013Y-96361619D01*
X161359716Y-98345020D01*
X160428637Y-100266769D01*
X159362540Y-102117030D01*
X158166882Y-103886333D01*
X156847784Y-105565621D01*
X155411997Y-107146299D01*
X153866870Y-108620277D01*
X152220311Y-109980011D01*
X150480749Y-111218539D01*
X148657087Y-112329524D01*
X146758660Y-113307278D01*
X144795185Y-114146797D01*
X142776711Y-114843784D01*
X140713569Y-115394672D01*
X138616321Y-115796641D01*
X136495701Y-116047633D01*
X134362562Y-116146363D01*
X132227823Y-116092327D01*
X130102411Y-115885801D01*
X127997205Y-115527842D01*
X125922979Y-115020283D01*
X123890351Y-114365720D01*
X121909725Y-113567505D01*
X119991237Y-112629723D01*
X118144709Y-111557174D01*
X116379591Y-110355347D01*
X114704917Y-109030395D01*
X113129260Y-107589099D01*
X111660685Y-106038837D01*
X110306708Y-104387542D01*
X109074259Y-102643667D01*
X107969647Y-100816138D01*
X106998525Y-98914310D01*
X106165865Y-96947916D01*
X105475928Y-94927021D01*
X104932245Y-92861970D01*
X104537600Y-90763331D01*
X104294011Y-88641847D01*
X104202727Y-86508377D01*
X104264215Y-84373840D01*
X104478158Y-82249162D01*
X104843464Y-80145217D01*
X105358261Y-78072776D01*
X106019915Y-76042445D01*
X106825039Y-74064617D01*
X107769512Y-72149415D01*
X108848500Y-70306642D01*
X110056480Y-68545729D01*
X111387270Y-66875691D01*
X112834057Y-65305075D01*
X114389437Y-63841920D01*
X116045448Y-62493715D01*
X117793614Y-61267361D01*
X119624987Y-60169135D01*
X121530194Y-59204658D01*
X123499483Y-58378867D01*
X125522774Y-57695988D01*
X127589710Y-57159517D01*
X128687051Y-56957127D01*
X127744155Y-60823000D01*
X120398335Y-60823000D01*
X120113352Y-60879687D01*
X119790181Y-61095623D01*
X119574245Y-61418794D01*
X119498418Y-61800000D01*
X119574245Y-62181206D01*
X119790181Y-62504377D01*
X120113352Y-62720313D01*
X120398335Y-62777000D01*
X133073000Y-62777000D01*
X133073000Y-63223000D01*
X116761046Y-63223000D01*
X116476063Y-63279687D01*
X116152892Y-63495623D01*
X115936956Y-63818794D01*
X115861129Y-64200000D01*
X115936956Y-64581206D01*
X116152892Y-64904377D01*
X116476063Y-65120313D01*
X116761046Y-65177000D01*
X133073000Y-65177000D01*
X133073000Y-65623000D01*
X114056290Y-65623000D01*
X113771307Y-65679687D01*
X113448136Y-65895623D01*
X113232200Y-66218794D01*
X113156373Y-66600000D01*
X113232200Y-66981206D01*
X113448136Y-67304377D01*
X113771307Y-67520313D01*
X114056290Y-67577000D01*
X133073000Y-67577000D01*
X133073000Y-68023000D01*
X111937647Y-68023000D01*
X111652664Y-68079687D01*
X111329493Y-68295623D01*
X111113557Y-68618794D01*
X111037730Y-69000000D01*
X111113557Y-69381206D01*
X111329493Y-69704377D01*
X111652664Y-69920313D01*
X111937647Y-69977000D01*
X133073000Y-69977000D01*
X133073000Y-70423000D01*
X110247449Y-70423000D01*
X109962466Y-70479687D01*
X109639295Y-70695623D01*
X109423359Y-71018794D01*
X109347532Y-71400000D01*
X109423359Y-71781206D01*
X109639295Y-72104377D01*
X109962466Y-72320313D01*
X110247449Y-72377000D01*
X133073000Y-72377000D01*
X133073000Y-72823000D01*
X108898837Y-72823000D01*
X108613854Y-72879687D01*
X108290683Y-73095623D01*
X108074747Y-73418794D01*
X107998920Y-73800000D01*
X108074747Y-74181206D01*
X108290683Y-74504377D01*
X108613854Y-74720313D01*
X108898837Y-74777000D01*
X133073000Y-74777000D01*
X133073000Y-75223000D01*
X107838839Y-75223000D01*
X107553856Y-75279687D01*
X107230685Y-75495623D01*
X107014749Y-75818794D01*
X106938922Y-76200000D01*
X107014749Y-76581206D01*
X107230685Y-76904377D01*
X107553856Y-77120313D01*
X107838839Y-77177000D01*
X133073000Y-77177000D01*
X133073000Y-77623000D01*
X107033339Y-77623000D01*
X106748356Y-77679687D01*
X106425185Y-77895623D01*
X106209249Y-78218794D01*
X106133422Y-78600000D01*
X106209249Y-78981206D01*
X106425185Y-79304377D01*
X106748356Y-79520313D01*
X107033339Y-79577000D01*
X133073000Y-79577000D01*
X133073000Y-80023000D01*
X106459960Y-80023000D01*
X106174977Y-80079687D01*
X105851806Y-80295623D01*
X105635870Y-80618794D01*
X105560043Y-81000000D01*
X105635870Y-81381206D01*
X105851806Y-81704377D01*
X106174977Y-81920313D01*
X106459960Y-81977000D01*
X133073000Y-81977000D01*
X133073000Y-82423000D01*
X106104360Y-82423000D01*
X105819377Y-82479687D01*
X105496206Y-82695623D01*
X105280270Y-83018794D01*
X105204443Y-83400000D01*
X105280270Y-83781206D01*
X105496206Y-84104377D01*
X105819377Y-84320313D01*
X106104360Y-84377000D01*
X133073000Y-84377000D01*
X133073000Y-84823000D01*
X105958242Y-84823000D01*
X105673259Y-84879687D01*
X105350088Y-85095623D01*
X105134152Y-85418794D01*
X105058325Y-85800000D01*
X105134152Y-86181206D01*
X105350088Y-86504377D01*
X105673259Y-86720313D01*
X105958242Y-86777000D01*
X133073000Y-86777000D01*
X133073000Y-87223000D01*
X106018316Y-87223000D01*
X105733333Y-87279687D01*
X105410162Y-87495623D01*
X105194226Y-87818794D01*
X105118399Y-88200000D01*
X105194226Y-88581206D01*
X105410162Y-88904377D01*
X105733333Y-89120313D01*
X106018316Y-89177000D01*
X133073001Y-89177000D01*
X133073001Y-89623000D01*
X106285926Y-89623000D01*
X106000943Y-89679687D01*
X105677772Y-89895623D01*
X105461836Y-90218794D01*
X105386009Y-90600000D01*
X105461836Y-90981206D01*
X105677772Y-91304377D01*
X106000943Y-91520313D01*
X106285926Y-91577000D01*
X133073001Y-91577000D01*
X133073001Y-92023000D01*
X106767199Y-92023000D01*
X106482216Y-92079687D01*
X106159045Y-92295623D01*
X105943109Y-92618794D01*
X105867282Y-93000000D01*
X105943109Y-93381206D01*
X106159045Y-93704377D01*
X106482216Y-93920313D01*
X106767199Y-93977000D01*
X133073001Y-93977000D01*
X133073001Y-94423000D01*
X107473785Y-94423000D01*
X107188802Y-94479687D01*
X106865631Y-94695623D01*
X106649695Y-95018794D01*
X106573868Y-95400000D01*
X106649695Y-95781206D01*
X106865631Y-96104377D01*
X107188802Y-96320313D01*
X107473785Y-96377000D01*
X133073001Y-96377000D01*
X133073001Y-96823000D01*
X108424382Y-96823000D01*
X108139399Y-96879687D01*
X107816228Y-97095623D01*
X107600292Y-97418794D01*
X107524465Y-97800000D01*
X107600292Y-98181206D01*
X107816228Y-98504377D01*
X108139399Y-98720313D01*
X108424382Y-98777000D01*
X133073001Y-98777000D01*
X133073001Y-99223000D01*
X109647605Y-99223000D01*
X109362622Y-99279687D01*
X109039451Y-99495623D01*
X108823515Y-99818794D01*
X108747688Y-100200000D01*
X108823515Y-100581206D01*
X109039451Y-100904377D01*
X109362622Y-101120313D01*
X109647605Y-101177000D01*
X133073001Y-101177000D01*
X133073001Y-101623000D01*
X111187354Y-101623000D01*
X110902371Y-101679687D01*
X110579200Y-101895623D01*
X110363264Y-102218794D01*
X110287437Y-102600000D01*
X110363264Y-102981206D01*
X110579200Y-103304377D01*
X110902371Y-103520313D01*
X111187354Y-103577000D01*
X133073001Y-103577000D01*
X133073001Y-104023000D01*
X113113671Y-104023000D01*
X112828688Y-104079687D01*
X112505517Y-104295623D01*
X112289581Y-104618794D01*
X112213754Y-105000000D01*
X112289581Y-105381206D01*
X112505517Y-105704377D01*
X112828688Y-105920313D01*
X113113671Y-105977000D01*
X133073001Y-105977000D01*
X133073001Y-106423000D01*
X115547528Y-106423000D01*
X115262545Y-106479687D01*
X114939374Y-106695623D01*
X114723438Y-107018794D01*
X114647611Y-107400000D01*
X114723438Y-107781206D01*
X114939374Y-108104377D01*
X115262545Y-108320313D01*
X115547528Y-108377000D01*
X133073001Y-108377000D01*
X133073001Y-108823000D01*
X118730440Y-108823000D01*
X118445457Y-108879687D01*
X118122286Y-109095623D01*
X117906350Y-109418794D01*
X117830523Y-109800000D01*
X117906350Y-110181206D01*
X118122286Y-110504377D01*
X118445457Y-110720313D01*
X118730440Y-110777000D01*
X133073001Y-110777000D01*
X133073001Y-111223000D01*
X123314698Y-111223000D01*
X123029715Y-111279687D01*
X122706544Y-111495623D01*
X122490608Y-111818794D01*
X122414781Y-112200000D01*
X122490608Y-112581206D01*
X122706544Y-112904377D01*
X123029715Y-113120313D01*
X123314698Y-113177000D01*
X133073001Y-113177000D01*
X133073001Y-114696223D01*
X133129688Y-114981206D01*
X133345624Y-115304377D01*
X133668795Y-115520313D01*
X134050000Y-115596140D01*
X134431206Y-115520313D01*
X134754377Y-115304377D01*
X134970313Y-114981206D01*
X135027000Y-114696223D01*
X135027000Y-114377000D01*
X141238240Y-114377000D01*
X141523223Y-114320313D01*
X141846394Y-114104377D01*
X142062330Y-113781206D01*
X142138157Y-113400000D01*
X142062330Y-113018794D01*
X141846394Y-112695623D01*
X141523223Y-112479687D01*
X141238240Y-112423000D01*
X135027000Y-112423000D01*
X135027000Y-112296223D01*
X135046140Y-112200000D01*
X135027000Y-112103777D01*
X135027000Y-111977000D01*
X147383717Y-111977000D01*
X147668700Y-111920313D01*
X147991871Y-111704377D01*
X148207807Y-111381206D01*
X148283634Y-111000000D01*
X148207807Y-110618794D01*
X147991871Y-110295623D01*
X147668700Y-110079687D01*
X147383717Y-110023000D01*
X135027000Y-110023000D01*
X135027000Y-109896223D01*
X135046140Y-109800000D01*
X135027000Y-109703777D01*
X135027000Y-109577000D01*
X151128736Y-109577000D01*
X151413719Y-109520313D01*
X151736890Y-109304377D01*
X151952826Y-108981206D01*
X152028653Y-108600000D01*
X151952826Y-108218794D01*
X151736890Y-107895623D01*
X151413719Y-107679687D01*
X151128736Y-107623000D01*
X135027000Y-107623000D01*
X135027000Y-107496223D01*
X135046140Y-107400000D01*
X135027000Y-107303777D01*
X135027000Y-107177000D01*
X153893685Y-107177000D01*
X154178668Y-107120313D01*
X154501839Y-106904377D01*
X154717775Y-106581206D01*
X154793602Y-106200000D01*
X154717775Y-105818794D01*
X154501839Y-105495623D01*
X154178668Y-105279687D01*
X153893685Y-105223000D01*
X135027000Y-105223000D01*
X135027000Y-105096223D01*
X135046140Y-105000000D01*
X135027000Y-104903777D01*
X135027000Y-104777000D01*
X156053716Y-104777000D01*
X156338699Y-104720313D01*
X156661870Y-104504377D01*
X156877806Y-104181206D01*
X156953633Y-103800000D01*
X156877806Y-103418794D01*
X156661870Y-103095623D01*
X156338699Y-102879687D01*
X156053716Y-102823000D01*
X135027000Y-102823000D01*
X135027000Y-102696223D01*
X135046140Y-102600000D01*
X135027000Y-102503777D01*
X135027000Y-102377000D01*
X157775663Y-102377000D01*
X158060646Y-102320313D01*
X158383817Y-102104377D01*
X158599753Y-101781206D01*
X158675580Y-101400000D01*
X158599753Y-101018794D01*
X158383817Y-100695623D01*
X158060646Y-100479687D01*
X157775663Y-100423000D01*
X135027000Y-100423000D01*
X135027000Y-100296223D01*
X135046140Y-100200000D01*
X135027000Y-100103777D01*
X135027000Y-99977000D01*
X159150381Y-99977000D01*
X159435364Y-99920313D01*
X159758535Y-99704377D01*
X159974471Y-99381206D01*
X160050298Y-99000000D01*
X159974471Y-98618794D01*
X159758535Y-98295623D01*
X159435364Y-98079687D01*
X159150381Y-98023000D01*
X135027000Y-98023000D01*
X135027000Y-97896223D01*
X135046140Y-97800000D01*
X135027000Y-97703777D01*
X135027000Y-97577000D01*
X160232928Y-97577000D01*
X160517911Y-97520313D01*
X160841082Y-97304377D01*
X161057018Y-96981206D01*
X161132845Y-96600000D01*
X161057018Y-96218794D01*
X160841082Y-95895623D01*
X160517911Y-95679687D01*
X160232928Y-95623000D01*
X135027000Y-95623000D01*
X135027000Y-95496223D01*
X135046140Y-95400000D01*
X135027000Y-95303777D01*
X135027000Y-95177000D01*
X161058650Y-95177000D01*
X161343633Y-95120313D01*
X161666804Y-94904377D01*
X161882740Y-94581206D01*
X161958567Y-94200000D01*
X161882740Y-93818794D01*
X161666804Y-93495623D01*
X161343633Y-93279687D01*
X161058650Y-93223000D01*
X135027000Y-93223000D01*
X135027000Y-93096223D01*
X135046140Y-93000000D01*
X135027000Y-92903777D01*
X135027000Y-92777000D01*
X161650731Y-92777000D01*
X161935714Y-92720313D01*
X162258885Y-92504377D01*
X162474821Y-92181206D01*
X162550648Y-91800000D01*
X162474821Y-91418794D01*
X162258885Y-91095623D01*
X161935714Y-90879687D01*
X161650731Y-90823000D01*
X135027000Y-90823000D01*
X135027000Y-90696223D01*
X135046140Y-90600000D01*
X135027000Y-90503777D01*
X135027000Y-90377000D01*
X162024087Y-90377000D01*
X162309070Y-90320313D01*
X162632241Y-90104377D01*
X162848177Y-89781206D01*
X162924004Y-89400000D01*
X162848177Y-89018794D01*
X162632241Y-88695623D01*
X162309070Y-88479687D01*
X162024087Y-88423000D01*
X135027000Y-88423000D01*
X135027000Y-88296223D01*
X135046140Y-88200000D01*
X135027000Y-88103777D01*
X135027000Y-87977000D01*
X162187472Y-87977000D01*
X162472455Y-87920313D01*
X162795626Y-87704377D01*
X163011562Y-87381206D01*
X163087389Y-87000000D01*
X163011562Y-86618794D01*
X162795626Y-86295623D01*
X162472455Y-86079687D01*
X162187472Y-86023000D01*
X135027000Y-86023000D01*
X135027000Y-85896223D01*
X135046140Y-85800000D01*
X135027000Y-85703777D01*
X135027000Y-85577000D01*
X162144568Y-85577000D01*
X162429551Y-85520313D01*
X162752722Y-85304377D01*
X162968658Y-84981206D01*
X163044485Y-84600000D01*
X162968658Y-84218794D01*
X162752722Y-83895623D01*
X162429551Y-83679687D01*
X162144568Y-83623000D01*
X135027000Y-83623000D01*
X135027000Y-83496223D01*
X135046140Y-83400000D01*
X135027000Y-83303777D01*
X135027000Y-83177000D01*
X161894418Y-83177000D01*
X162179401Y-83120313D01*
X162502572Y-82904377D01*
X162718508Y-82581206D01*
X162794335Y-82200000D01*
X162718508Y-81818794D01*
X162502572Y-81495623D01*
X162179401Y-81279687D01*
X161894418Y-81223000D01*
X135027000Y-81223000D01*
X135027000Y-81096223D01*
X135046140Y-81000000D01*
X135027000Y-80903777D01*
X135027000Y-80777000D01*
X161431311Y-80777000D01*
X161716294Y-80720313D01*
X162039465Y-80504377D01*
X162255401Y-80181206D01*
X162331228Y-79800000D01*
X162255401Y-79418794D01*
X162039465Y-79095623D01*
X161716294Y-78879687D01*
X161431311Y-78823000D01*
X135027000Y-78823000D01*
X135027000Y-78696223D01*
X135046140Y-78600000D01*
X135027000Y-78503777D01*
X135027000Y-78377000D01*
X160744104Y-78377000D01*
X161029087Y-78320313D01*
X161352258Y-78104377D01*
X161568194Y-77781206D01*
X161644021Y-77400000D01*
X161568194Y-77018794D01*
X161352258Y-76695623D01*
X161029087Y-76479687D01*
X160744104Y-76423000D01*
X135027000Y-76423000D01*
X135027000Y-76296223D01*
X135046140Y-76200000D01*
X135027000Y-76103777D01*
X135027000Y-75977000D01*
X159814771Y-75977000D01*
X160099754Y-75920313D01*
X160422925Y-75704377D01*
X160638861Y-75381206D01*
X160714688Y-75000000D01*
X160638861Y-74618794D01*
X160422925Y-74295623D01*
X160099754Y-74079687D01*
X159814771Y-74023000D01*
X135027000Y-74023000D01*
X135027000Y-73896223D01*
X135046140Y-73800000D01*
X135027000Y-73703777D01*
X135027000Y-73577000D01*
X158615682Y-73577000D01*
X158900665Y-73520313D01*
X159223836Y-73304377D01*
X159439772Y-72981206D01*
X159515599Y-72600000D01*
X159439772Y-72218794D01*
X159223836Y-71895623D01*
X158900665Y-71679687D01*
X158615682Y-71623000D01*
X135027000Y-71623000D01*
X135027000Y-71496223D01*
X135046140Y-71400000D01*
X135027000Y-71303777D01*
X135027000Y-71177000D01*
X157104518Y-71177000D01*
X157389501Y-71120313D01*
X157712672Y-70904377D01*
X157928608Y-70581206D01*
X158004435Y-70200000D01*
X157928608Y-69818794D01*
X157712672Y-69495623D01*
X157389501Y-69279687D01*
X157104518Y-69223000D01*
X135027000Y-69223000D01*
X135027000Y-69096223D01*
X135046140Y-69000000D01*
X135027000Y-68903777D01*
X135027000Y-68777000D01*
X155214073Y-68777000D01*
X155499056Y-68720313D01*
X155822227Y-68504377D01*
X156038163Y-68181206D01*
X156113990Y-67800000D01*
X156038163Y-67418794D01*
X155822227Y-67095623D01*
X155499056Y-66879687D01*
X155214073Y-66823000D01*
X135027000Y-66823000D01*
X135027000Y-66696223D01*
X135046140Y-66600000D01*
X135027000Y-66503777D01*
X135027000Y-66377000D01*
X152829258Y-66377000D01*
X153114241Y-66320313D01*
X153437412Y-66104377D01*
X153653348Y-65781206D01*
X153729175Y-65400000D01*
X153653348Y-65018794D01*
X153437412Y-64695623D01*
X153114241Y-64479687D01*
X152829258Y-64423000D01*
X135027000Y-64423000D01*
X135027000Y-64296223D01*
X135046140Y-64200000D01*
X135027000Y-64103777D01*
X135027000Y-63977000D01*
X149723940Y-63977000D01*
X150008923Y-63920313D01*
X150332094Y-63704377D01*
X150548030Y-63381206D01*
X150623857Y-63000000D01*
X150548030Y-62618794D01*
X150332094Y-62295623D01*
X150008923Y-62079687D01*
X149723940Y-62023000D01*
X135151030Y-62023000D01*
X135167333Y-61998601D01*
X135177000Y-61950000D01*
X135177000Y-59215540D01*
X135263000Y-59170155D01*
X135263000Y-57977000D01*
X135517000Y-57977000D01*
X135517000Y-59170155D01*
X135746890Y-59291476D01*
X136156924Y-59121645D01*
X136585183Y-58731358D01*
X136831486Y-58206892D01*
X136710819Y-57977000D01*
X135517000Y-57977000D01*
X135263000Y-57977000D01*
X135243000Y-57977000D01*
X135243000Y-57723000D01*
X135263000Y-57723000D01*
X135263000Y-57703000D01*
X135517000Y-57703000D01*
X135517000Y-57723000D01*
X136710819Y-57723000D01*
X136831486Y-57493108D01*
X136585183Y-56968642D01*
X136156924Y-56578355D01*
X136013546Y-56518970D01*
X136080120Y-56521120D01*
G04 #@! TD*
M02*
