G04 #@! TF.GenerationSoftware,KiCad,Pcbnew,(6.0.0-rc1-dev-135-gb4df06c)*
G04 #@! TF.CreationDate,2018-08-02T19:39:46+03:00*
G04 #@! TF.ProjectId,leaf-moist-sensor,6C6561662D6D6F6973742D73656E736F,rev?*
G04 #@! TF.SameCoordinates,Original*
G04 #@! TF.FileFunction,Copper,L1,Top,Signal*
G04 #@! TF.FilePolarity,Positive*
%FSLAX46Y46*%
G04 Gerber Fmt 4.6, Leading zero omitted, Abs format (unit mm)*
G04 Created by KiCad (PCBNEW (6.0.0-rc1-dev-135-gb4df06c)) date 2018 August 02, Thursday 19:39:46*
%MOMM*%
%LPD*%
G01*
G04 APERTURE LIST*
G04 #@! TA.AperFunction,SMDPad,CuDef*
%ADD10R,0.500000X0.900000*%
G04 #@! TD*
G04 #@! TA.AperFunction,ComponentPad*
%ADD11O,1.700000X1.700000*%
G04 #@! TD*
G04 #@! TA.AperFunction,ComponentPad*
%ADD12R,1.700000X1.700000*%
G04 #@! TD*
G04 #@! TA.AperFunction,Conductor*
%ADD13C,0.250000*%
G04 #@! TD*
G04 #@! TA.AperFunction,Conductor*
%ADD14C,0.700000*%
G04 #@! TD*
G04 #@! TA.AperFunction,Conductor*
%ADD15C,0.254000*%
G04 #@! TD*
G04 APERTURE END LIST*
D10*
G04 #@! TO.P,R4,2*
G04 #@! TO.N,/EXCITATION*
X132550000Y-60400000D03*
G04 #@! TO.P,R4,1*
G04 #@! TO.N,/SENSOR_TRACK*
X134050000Y-60400000D03*
G04 #@! TD*
D11*
G04 #@! TO.P,P1,2*
G04 #@! TO.N,GND*
X135390000Y-57850000D03*
D12*
G04 #@! TO.P,P1,1*
G04 #@! TO.N,/EXCITATION*
X132850000Y-57850000D03*
G04 #@! TD*
D13*
G04 #@! TO.N,/EXCITATION*
X132550000Y-57550000D02*
X132850000Y-57250000D01*
D14*
X132850000Y-60100000D02*
X132550000Y-60400000D01*
X132850000Y-57850000D02*
X132850000Y-60100000D01*
G04 #@! TO.N,/SENSOR_TRACK*
X134100000Y-67000000D02*
X152133726Y-67000000D01*
X134100000Y-72600000D02*
X156048657Y-72600000D01*
X134100000Y-78200000D02*
X158314227Y-78200000D01*
X134100000Y-83800000D02*
X159347707Y-83800000D01*
X134100000Y-89400000D02*
X159290258Y-89400000D01*
X134100000Y-95000000D02*
X158134652Y-95000000D01*
X134100000Y-100600000D02*
X155719801Y-100600000D01*
X134100000Y-106200000D02*
X151578371Y-106200000D01*
X134100000Y-111800000D02*
X140964663Y-111800000D01*
X134050000Y-70850000D02*
X113114569Y-70850000D01*
X134050000Y-76450000D02*
X110399542Y-76450000D01*
X134050000Y-82050000D02*
X109004803Y-82050000D01*
X134050000Y-87650000D02*
X108726776Y-87650000D01*
X134050000Y-93250000D02*
X109530279Y-93250000D01*
X134050000Y-98850000D02*
X111521564Y-98850000D01*
X134050000Y-104450000D02*
X115037901Y-104450000D01*
X134050000Y-110050000D02*
X123145216Y-110050000D01*
X134050000Y-60400000D02*
X134050000Y-62500000D01*
X134050000Y-65250000D02*
X119800000Y-65250000D01*
X134050000Y-62500000D02*
X134050000Y-65250000D01*
X134050000Y-65250000D02*
X134050000Y-112300000D01*
G04 #@! TO.N,GND*
X136239999Y-58699999D02*
X136249999Y-58699999D01*
X135390000Y-57850000D02*
X136239999Y-58699999D01*
X136249999Y-58699999D02*
X136700000Y-59150000D01*
G04 #@! TD*
D15*
G04 #@! TO.N,GND*
G36*
X138064866Y-57732747D02*
X140097076Y-58092909D01*
X142098335Y-58597448D01*
X144058400Y-59243780D01*
X145967237Y-60028598D01*
X147815076Y-60947884D01*
X149592460Y-61996933D01*
X151290290Y-63170376D01*
X152899878Y-64462207D01*
X154412983Y-65865812D01*
X155821862Y-67374009D01*
X157119303Y-68979077D01*
X158298665Y-70672802D01*
X159353913Y-72446513D01*
X160279643Y-74291132D01*
X161071119Y-76197217D01*
X161724290Y-78155014D01*
X162235811Y-80154499D01*
X162603065Y-82185441D01*
X162824172Y-84237442D01*
X162898000Y-86300000D01*
X162850165Y-87960607D01*
X162657730Y-90015495D01*
X162318868Y-92051366D01*
X161835314Y-94057799D01*
X161209542Y-96024524D01*
X160444756Y-97941475D01*
X159544871Y-99798839D01*
X158514491Y-101587111D01*
X157358892Y-103297137D01*
X156083988Y-104920163D01*
X154696304Y-106447884D01*
X153202943Y-107872479D01*
X151611550Y-109186657D01*
X149930268Y-110383691D01*
X148167705Y-111457454D01*
X146332881Y-112402451D01*
X144435188Y-113213844D01*
X142484339Y-113887480D01*
X140490319Y-114419911D01*
X138463335Y-114808412D01*
X136413762Y-115050995D01*
X134352090Y-115146418D01*
X132288872Y-115094193D01*
X130234668Y-114894586D01*
X128199992Y-114548620D01*
X126195259Y-114058065D01*
X124230731Y-113425432D01*
X122316461Y-112653959D01*
X120462249Y-111747596D01*
X118677585Y-110710980D01*
X116971604Y-109549419D01*
X115353037Y-108268857D01*
X113830170Y-106875849D01*
X112410796Y-105377525D01*
X111102181Y-103781553D01*
X109911023Y-102096104D01*
X108843419Y-100329803D01*
X107904833Y-98491692D01*
X107100069Y-96591178D01*
X106433247Y-94637989D01*
X105907779Y-92642123D01*
X105526356Y-90613796D01*
X105290929Y-88563388D01*
X105202703Y-86501395D01*
X105262130Y-84438372D01*
X105468906Y-82384877D01*
X105821973Y-80351422D01*
X106319523Y-78348414D01*
X106959009Y-76386105D01*
X107737159Y-74474540D01*
X108649989Y-72623503D01*
X109692828Y-70842469D01*
X110860337Y-69140552D01*
X112146541Y-67526465D01*
X113544857Y-66008470D01*
X115048126Y-64594335D01*
X116648656Y-63291299D01*
X118338253Y-62106031D01*
X120108270Y-61044599D01*
X121949646Y-60112435D01*
X123852958Y-59314311D01*
X125808462Y-58654310D01*
X127806150Y-58135813D01*
X128427519Y-58021210D01*
X127476617Y-61919907D01*
X127473000Y-61950000D01*
X127482667Y-61998601D01*
X127510197Y-62039803D01*
X127551399Y-62067333D01*
X127600000Y-62077000D01*
X131207814Y-62077000D01*
X131665176Y-62382600D01*
X132073000Y-62463721D01*
X132073000Y-63273000D01*
X119605286Y-63273000D01*
X119028613Y-63387707D01*
X118374663Y-63824663D01*
X117937707Y-64478613D01*
X117784269Y-65250000D01*
X117937707Y-66021387D01*
X118374663Y-66675337D01*
X119028613Y-67112293D01*
X119605286Y-67227000D01*
X132073000Y-67227000D01*
X132073000Y-68873000D01*
X112919855Y-68873000D01*
X112343182Y-68987707D01*
X111689232Y-69424663D01*
X111252276Y-70078613D01*
X111098838Y-70850000D01*
X111252276Y-71621387D01*
X111689232Y-72275337D01*
X112343182Y-72712293D01*
X112919855Y-72827000D01*
X132073000Y-72827000D01*
X132073000Y-74473000D01*
X110204828Y-74473000D01*
X109628155Y-74587707D01*
X108974205Y-75024663D01*
X108537249Y-75678613D01*
X108383811Y-76450000D01*
X108537249Y-77221387D01*
X108974205Y-77875337D01*
X109628155Y-78312293D01*
X110204828Y-78427000D01*
X132073000Y-78427000D01*
X132073000Y-80073000D01*
X108810089Y-80073000D01*
X108233416Y-80187707D01*
X107579466Y-80624663D01*
X107142510Y-81278613D01*
X106989072Y-82050000D01*
X107142510Y-82821387D01*
X107579466Y-83475337D01*
X108233416Y-83912293D01*
X108810089Y-84027000D01*
X132073000Y-84027000D01*
X132073000Y-85673000D01*
X108532062Y-85673000D01*
X107955389Y-85787707D01*
X107301439Y-86224663D01*
X106864483Y-86878613D01*
X106711045Y-87650000D01*
X106864483Y-88421387D01*
X107301439Y-89075337D01*
X107955389Y-89512293D01*
X108532062Y-89627000D01*
X132073001Y-89627000D01*
X132073001Y-91273000D01*
X109335565Y-91273000D01*
X108758892Y-91387707D01*
X108104942Y-91824663D01*
X107667986Y-92478613D01*
X107514548Y-93250000D01*
X107667986Y-94021387D01*
X108104942Y-94675337D01*
X108758892Y-95112293D01*
X109335565Y-95227000D01*
X132073001Y-95227000D01*
X132073001Y-96873000D01*
X111326850Y-96873000D01*
X110750177Y-96987707D01*
X110096227Y-97424663D01*
X109659271Y-98078613D01*
X109505833Y-98850000D01*
X109659271Y-99621387D01*
X110096227Y-100275337D01*
X110750177Y-100712293D01*
X111326850Y-100827000D01*
X132073001Y-100827000D01*
X132073001Y-102473000D01*
X114843187Y-102473000D01*
X114266514Y-102587707D01*
X113612564Y-103024663D01*
X113175608Y-103678613D01*
X113022170Y-104450000D01*
X113175608Y-105221387D01*
X113612564Y-105875337D01*
X114266514Y-106312293D01*
X114843187Y-106427000D01*
X132073001Y-106427000D01*
X132073001Y-108073000D01*
X122950502Y-108073000D01*
X122373829Y-108187707D01*
X121719879Y-108624663D01*
X121282923Y-109278613D01*
X121129485Y-110050000D01*
X121282923Y-110821387D01*
X121719879Y-111475337D01*
X122373829Y-111912293D01*
X122950502Y-112027000D01*
X132073001Y-112027000D01*
X132073001Y-112494714D01*
X132187708Y-113071387D01*
X132624664Y-113725337D01*
X133278614Y-114162293D01*
X134050000Y-114315731D01*
X134821387Y-114162293D01*
X135398018Y-113777000D01*
X141159377Y-113777000D01*
X141736050Y-113662293D01*
X142390000Y-113225337D01*
X142826956Y-112571387D01*
X142980394Y-111800000D01*
X142826956Y-111028613D01*
X142390000Y-110374663D01*
X141736050Y-109937707D01*
X141159377Y-109823000D01*
X136027000Y-109823000D01*
X136027000Y-108177000D01*
X151773085Y-108177000D01*
X152349758Y-108062293D01*
X153003708Y-107625337D01*
X153440664Y-106971387D01*
X153594102Y-106200000D01*
X153440664Y-105428613D01*
X153003708Y-104774663D01*
X152349758Y-104337707D01*
X151773085Y-104223000D01*
X136027000Y-104223000D01*
X136027000Y-102577000D01*
X155914515Y-102577000D01*
X156491188Y-102462293D01*
X157145138Y-102025337D01*
X157582094Y-101371387D01*
X157735532Y-100600000D01*
X157582094Y-99828613D01*
X157145138Y-99174663D01*
X156491188Y-98737707D01*
X155914515Y-98623000D01*
X136027000Y-98623000D01*
X136027000Y-96977000D01*
X158329366Y-96977000D01*
X158906039Y-96862293D01*
X159559989Y-96425337D01*
X159996945Y-95771387D01*
X160150383Y-95000000D01*
X159996945Y-94228613D01*
X159559989Y-93574663D01*
X158906039Y-93137707D01*
X158329366Y-93023000D01*
X136027000Y-93023000D01*
X136027000Y-91377000D01*
X159484972Y-91377000D01*
X160061645Y-91262293D01*
X160715595Y-90825337D01*
X161152551Y-90171387D01*
X161305989Y-89400000D01*
X161152551Y-88628613D01*
X160715595Y-87974663D01*
X160061645Y-87537707D01*
X159484972Y-87423000D01*
X136027000Y-87423000D01*
X136027000Y-85777000D01*
X159542421Y-85777000D01*
X160119094Y-85662293D01*
X160773044Y-85225337D01*
X161210000Y-84571387D01*
X161363438Y-83800000D01*
X161210000Y-83028613D01*
X160773044Y-82374663D01*
X160119094Y-81937707D01*
X159542421Y-81823000D01*
X136027000Y-81823000D01*
X136027000Y-80177000D01*
X158508941Y-80177000D01*
X159085614Y-80062293D01*
X159739564Y-79625337D01*
X160176520Y-78971387D01*
X160329958Y-78200000D01*
X160176520Y-77428613D01*
X159739564Y-76774663D01*
X159085614Y-76337707D01*
X158508941Y-76223000D01*
X136027000Y-76223000D01*
X136027000Y-74577000D01*
X156243371Y-74577000D01*
X156820044Y-74462293D01*
X157473994Y-74025337D01*
X157910950Y-73371387D01*
X158064388Y-72600000D01*
X157910950Y-71828613D01*
X157473994Y-71174663D01*
X156820044Y-70737707D01*
X156243371Y-70623000D01*
X136027000Y-70623000D01*
X136027000Y-68977000D01*
X152328440Y-68977000D01*
X152905113Y-68862293D01*
X153559063Y-68425337D01*
X153996019Y-67771387D01*
X154149457Y-67000000D01*
X153996019Y-66228613D01*
X153559063Y-65574663D01*
X152905113Y-65137707D01*
X152328440Y-65023000D01*
X136027000Y-65023000D01*
X136027000Y-60205286D01*
X135912293Y-59628613D01*
X135887593Y-59591648D01*
X135832600Y-59315176D01*
X135801618Y-59268808D01*
X136156924Y-59121645D01*
X136585183Y-58731358D01*
X136831486Y-58206892D01*
X136710819Y-57977000D01*
X135517000Y-57977000D01*
X135517000Y-57997000D01*
X135358874Y-57997000D01*
X135358874Y-57703000D01*
X135517000Y-57703000D01*
X135517000Y-57723000D01*
X136710819Y-57723000D01*
X136776199Y-57598439D01*
X138064866Y-57732747D01*
X138064866Y-57732747D01*
G37*
X138064866Y-57732747D02*
X140097076Y-58092909D01*
X142098335Y-58597448D01*
X144058400Y-59243780D01*
X145967237Y-60028598D01*
X147815076Y-60947884D01*
X149592460Y-61996933D01*
X151290290Y-63170376D01*
X152899878Y-64462207D01*
X154412983Y-65865812D01*
X155821862Y-67374009D01*
X157119303Y-68979077D01*
X158298665Y-70672802D01*
X159353913Y-72446513D01*
X160279643Y-74291132D01*
X161071119Y-76197217D01*
X161724290Y-78155014D01*
X162235811Y-80154499D01*
X162603065Y-82185441D01*
X162824172Y-84237442D01*
X162898000Y-86300000D01*
X162850165Y-87960607D01*
X162657730Y-90015495D01*
X162318868Y-92051366D01*
X161835314Y-94057799D01*
X161209542Y-96024524D01*
X160444756Y-97941475D01*
X159544871Y-99798839D01*
X158514491Y-101587111D01*
X157358892Y-103297137D01*
X156083988Y-104920163D01*
X154696304Y-106447884D01*
X153202943Y-107872479D01*
X151611550Y-109186657D01*
X149930268Y-110383691D01*
X148167705Y-111457454D01*
X146332881Y-112402451D01*
X144435188Y-113213844D01*
X142484339Y-113887480D01*
X140490319Y-114419911D01*
X138463335Y-114808412D01*
X136413762Y-115050995D01*
X134352090Y-115146418D01*
X132288872Y-115094193D01*
X130234668Y-114894586D01*
X128199992Y-114548620D01*
X126195259Y-114058065D01*
X124230731Y-113425432D01*
X122316461Y-112653959D01*
X120462249Y-111747596D01*
X118677585Y-110710980D01*
X116971604Y-109549419D01*
X115353037Y-108268857D01*
X113830170Y-106875849D01*
X112410796Y-105377525D01*
X111102181Y-103781553D01*
X109911023Y-102096104D01*
X108843419Y-100329803D01*
X107904833Y-98491692D01*
X107100069Y-96591178D01*
X106433247Y-94637989D01*
X105907779Y-92642123D01*
X105526356Y-90613796D01*
X105290929Y-88563388D01*
X105202703Y-86501395D01*
X105262130Y-84438372D01*
X105468906Y-82384877D01*
X105821973Y-80351422D01*
X106319523Y-78348414D01*
X106959009Y-76386105D01*
X107737159Y-74474540D01*
X108649989Y-72623503D01*
X109692828Y-70842469D01*
X110860337Y-69140552D01*
X112146541Y-67526465D01*
X113544857Y-66008470D01*
X115048126Y-64594335D01*
X116648656Y-63291299D01*
X118338253Y-62106031D01*
X120108270Y-61044599D01*
X121949646Y-60112435D01*
X123852958Y-59314311D01*
X125808462Y-58654310D01*
X127806150Y-58135813D01*
X128427519Y-58021210D01*
X127476617Y-61919907D01*
X127473000Y-61950000D01*
X127482667Y-61998601D01*
X127510197Y-62039803D01*
X127551399Y-62067333D01*
X127600000Y-62077000D01*
X131207814Y-62077000D01*
X131665176Y-62382600D01*
X132073000Y-62463721D01*
X132073000Y-63273000D01*
X119605286Y-63273000D01*
X119028613Y-63387707D01*
X118374663Y-63824663D01*
X117937707Y-64478613D01*
X117784269Y-65250000D01*
X117937707Y-66021387D01*
X118374663Y-66675337D01*
X119028613Y-67112293D01*
X119605286Y-67227000D01*
X132073000Y-67227000D01*
X132073000Y-68873000D01*
X112919855Y-68873000D01*
X112343182Y-68987707D01*
X111689232Y-69424663D01*
X111252276Y-70078613D01*
X111098838Y-70850000D01*
X111252276Y-71621387D01*
X111689232Y-72275337D01*
X112343182Y-72712293D01*
X112919855Y-72827000D01*
X132073000Y-72827000D01*
X132073000Y-74473000D01*
X110204828Y-74473000D01*
X109628155Y-74587707D01*
X108974205Y-75024663D01*
X108537249Y-75678613D01*
X108383811Y-76450000D01*
X108537249Y-77221387D01*
X108974205Y-77875337D01*
X109628155Y-78312293D01*
X110204828Y-78427000D01*
X132073000Y-78427000D01*
X132073000Y-80073000D01*
X108810089Y-80073000D01*
X108233416Y-80187707D01*
X107579466Y-80624663D01*
X107142510Y-81278613D01*
X106989072Y-82050000D01*
X107142510Y-82821387D01*
X107579466Y-83475337D01*
X108233416Y-83912293D01*
X108810089Y-84027000D01*
X132073000Y-84027000D01*
X132073000Y-85673000D01*
X108532062Y-85673000D01*
X107955389Y-85787707D01*
X107301439Y-86224663D01*
X106864483Y-86878613D01*
X106711045Y-87650000D01*
X106864483Y-88421387D01*
X107301439Y-89075337D01*
X107955389Y-89512293D01*
X108532062Y-89627000D01*
X132073001Y-89627000D01*
X132073001Y-91273000D01*
X109335565Y-91273000D01*
X108758892Y-91387707D01*
X108104942Y-91824663D01*
X107667986Y-92478613D01*
X107514548Y-93250000D01*
X107667986Y-94021387D01*
X108104942Y-94675337D01*
X108758892Y-95112293D01*
X109335565Y-95227000D01*
X132073001Y-95227000D01*
X132073001Y-96873000D01*
X111326850Y-96873000D01*
X110750177Y-96987707D01*
X110096227Y-97424663D01*
X109659271Y-98078613D01*
X109505833Y-98850000D01*
X109659271Y-99621387D01*
X110096227Y-100275337D01*
X110750177Y-100712293D01*
X111326850Y-100827000D01*
X132073001Y-100827000D01*
X132073001Y-102473000D01*
X114843187Y-102473000D01*
X114266514Y-102587707D01*
X113612564Y-103024663D01*
X113175608Y-103678613D01*
X113022170Y-104450000D01*
X113175608Y-105221387D01*
X113612564Y-105875337D01*
X114266514Y-106312293D01*
X114843187Y-106427000D01*
X132073001Y-106427000D01*
X132073001Y-108073000D01*
X122950502Y-108073000D01*
X122373829Y-108187707D01*
X121719879Y-108624663D01*
X121282923Y-109278613D01*
X121129485Y-110050000D01*
X121282923Y-110821387D01*
X121719879Y-111475337D01*
X122373829Y-111912293D01*
X122950502Y-112027000D01*
X132073001Y-112027000D01*
X132073001Y-112494714D01*
X132187708Y-113071387D01*
X132624664Y-113725337D01*
X133278614Y-114162293D01*
X134050000Y-114315731D01*
X134821387Y-114162293D01*
X135398018Y-113777000D01*
X141159377Y-113777000D01*
X141736050Y-113662293D01*
X142390000Y-113225337D01*
X142826956Y-112571387D01*
X142980394Y-111800000D01*
X142826956Y-111028613D01*
X142390000Y-110374663D01*
X141736050Y-109937707D01*
X141159377Y-109823000D01*
X136027000Y-109823000D01*
X136027000Y-108177000D01*
X151773085Y-108177000D01*
X152349758Y-108062293D01*
X153003708Y-107625337D01*
X153440664Y-106971387D01*
X153594102Y-106200000D01*
X153440664Y-105428613D01*
X153003708Y-104774663D01*
X152349758Y-104337707D01*
X151773085Y-104223000D01*
X136027000Y-104223000D01*
X136027000Y-102577000D01*
X155914515Y-102577000D01*
X156491188Y-102462293D01*
X157145138Y-102025337D01*
X157582094Y-101371387D01*
X157735532Y-100600000D01*
X157582094Y-99828613D01*
X157145138Y-99174663D01*
X156491188Y-98737707D01*
X155914515Y-98623000D01*
X136027000Y-98623000D01*
X136027000Y-96977000D01*
X158329366Y-96977000D01*
X158906039Y-96862293D01*
X159559989Y-96425337D01*
X159996945Y-95771387D01*
X160150383Y-95000000D01*
X159996945Y-94228613D01*
X159559989Y-93574663D01*
X158906039Y-93137707D01*
X158329366Y-93023000D01*
X136027000Y-93023000D01*
X136027000Y-91377000D01*
X159484972Y-91377000D01*
X160061645Y-91262293D01*
X160715595Y-90825337D01*
X161152551Y-90171387D01*
X161305989Y-89400000D01*
X161152551Y-88628613D01*
X160715595Y-87974663D01*
X160061645Y-87537707D01*
X159484972Y-87423000D01*
X136027000Y-87423000D01*
X136027000Y-85777000D01*
X159542421Y-85777000D01*
X160119094Y-85662293D01*
X160773044Y-85225337D01*
X161210000Y-84571387D01*
X161363438Y-83800000D01*
X161210000Y-83028613D01*
X160773044Y-82374663D01*
X160119094Y-81937707D01*
X159542421Y-81823000D01*
X136027000Y-81823000D01*
X136027000Y-80177000D01*
X158508941Y-80177000D01*
X159085614Y-80062293D01*
X159739564Y-79625337D01*
X160176520Y-78971387D01*
X160329958Y-78200000D01*
X160176520Y-77428613D01*
X159739564Y-76774663D01*
X159085614Y-76337707D01*
X158508941Y-76223000D01*
X136027000Y-76223000D01*
X136027000Y-74577000D01*
X156243371Y-74577000D01*
X156820044Y-74462293D01*
X157473994Y-74025337D01*
X157910950Y-73371387D01*
X158064388Y-72600000D01*
X157910950Y-71828613D01*
X157473994Y-71174663D01*
X156820044Y-70737707D01*
X156243371Y-70623000D01*
X136027000Y-70623000D01*
X136027000Y-68977000D01*
X152328440Y-68977000D01*
X152905113Y-68862293D01*
X153559063Y-68425337D01*
X153996019Y-67771387D01*
X154149457Y-67000000D01*
X153996019Y-66228613D01*
X153559063Y-65574663D01*
X152905113Y-65137707D01*
X152328440Y-65023000D01*
X136027000Y-65023000D01*
X136027000Y-60205286D01*
X135912293Y-59628613D01*
X135887593Y-59591648D01*
X135832600Y-59315176D01*
X135801618Y-59268808D01*
X136156924Y-59121645D01*
X136585183Y-58731358D01*
X136831486Y-58206892D01*
X136710819Y-57977000D01*
X135517000Y-57977000D01*
X135517000Y-57997000D01*
X135358874Y-57997000D01*
X135358874Y-57703000D01*
X135517000Y-57703000D01*
X135517000Y-57723000D01*
X136710819Y-57723000D01*
X136776199Y-57598439D01*
X138064866Y-57732747D01*
G04 #@! TD*
M02*
