G04 #@! TF.GenerationSoftware,KiCad,Pcbnew,(6.0.0-rc1-dev-135-gb4df06c)*
G04 #@! TF.CreationDate,2018-08-02T19:22:29+03:00*
G04 #@! TF.ProjectId,leaf-moist-sensor,6C6561662D6D6F6973742D73656E736F,rev?*
G04 #@! TF.SameCoordinates,Original*
G04 #@! TF.FileFunction,Copper,L1,Top,Signal*
G04 #@! TF.FilePolarity,Positive*
%FSLAX46Y46*%
G04 Gerber Fmt 4.6, Leading zero omitted, Abs format (unit mm)*
G04 Created by KiCad (PCBNEW (6.0.0-rc1-dev-135-gb4df06c)) date 2018 August 02, Thursday 19:22:29*
%MOMM*%
%LPD*%
G01*
G04 APERTURE LIST*
G04 #@! TA.AperFunction,SMDPad,CuDef*
%ADD10R,0.500000X0.900000*%
G04 #@! TD*
G04 #@! TA.AperFunction,ComponentPad*
%ADD11O,1.700000X1.700000*%
G04 #@! TD*
G04 #@! TA.AperFunction,ComponentPad*
%ADD12R,1.700000X1.700000*%
G04 #@! TD*
G04 #@! TA.AperFunction,Conductor*
%ADD13C,0.250000*%
G04 #@! TD*
G04 #@! TA.AperFunction,Conductor*
%ADD14C,0.700000*%
G04 #@! TD*
G04 #@! TA.AperFunction,Conductor*
%ADD15C,0.254000*%
G04 #@! TD*
G04 APERTURE END LIST*
D10*
G04 #@! TO.P,R4,2*
G04 #@! TO.N,/EXCITATION*
X132550000Y-60400000D03*
G04 #@! TO.P,R4,1*
G04 #@! TO.N,/SENSOR_TRACK*
X134050000Y-60400000D03*
G04 #@! TD*
D11*
G04 #@! TO.P,P1,2*
G04 #@! TO.N,GND*
X135390000Y-57850000D03*
D12*
G04 #@! TO.P,P1,1*
G04 #@! TO.N,/EXCITATION*
X132850000Y-57850000D03*
G04 #@! TD*
D13*
G04 #@! TO.N,/EXCITATION*
X132550000Y-57550000D02*
X132850000Y-57250000D01*
D14*
X132850000Y-60100000D02*
X132550000Y-60400000D01*
X132850000Y-57850000D02*
X132850000Y-60100000D01*
G04 #@! TO.N,/SENSOR_TRACK*
X134050000Y-62500000D02*
X134050000Y-113500000D01*
X134100000Y-62800000D02*
X148152824Y-62800000D01*
X134100000Y-66300000D02*
X152367900Y-66300000D01*
X134100000Y-69800000D02*
X155295018Y-69800000D01*
X134100000Y-73300000D02*
X157405230Y-73300000D01*
X134100000Y-76800000D02*
X158899484Y-76800000D01*
X134100000Y-80300000D02*
X159880684Y-80300000D01*
X134100000Y-83800000D02*
X160403892Y-83800000D01*
X134100000Y-87300000D02*
X160495193Y-87300000D01*
X134100000Y-90800000D02*
X160158928Y-90800000D01*
X134100000Y-94300000D02*
X159378804Y-94300000D01*
X134100000Y-97800000D02*
X158113596Y-97800000D01*
X134100000Y-101300000D02*
X156284453Y-101300000D01*
X134100000Y-104800000D02*
X153742493Y-104800000D01*
X134100000Y-108300000D02*
X150171971Y-108300000D01*
X134100000Y-111800000D02*
X144644811Y-111800000D01*
X134050000Y-64550000D02*
X117676345Y-64550000D01*
X134050000Y-68050000D02*
X114197164Y-68050000D01*
X134050000Y-71550000D02*
X111713608Y-71550000D01*
X134050000Y-75050000D02*
X109928551Y-75050000D01*
X134050000Y-78550000D02*
X108700046Y-78550000D01*
X134050000Y-82050000D02*
X107952652Y-82050000D01*
X134050000Y-85550000D02*
X107647212Y-85550000D01*
X134050000Y-89050000D02*
X107768981Y-89050000D01*
X134050000Y-92550000D02*
X108323753Y-92550000D01*
X134050000Y-96050000D02*
X109339354Y-96050000D01*
X134050000Y-99550000D02*
X110873436Y-99550000D01*
X134050000Y-103050000D02*
X113033631Y-103050000D01*
X134050000Y-106550000D02*
X116031768Y-106550000D01*
X134050000Y-110050000D02*
X120375014Y-110050000D01*
X134050000Y-60400000D02*
X134050000Y-62500000D01*
G04 #@! TO.N,GND*
X136239999Y-58699999D02*
X136249999Y-58699999D01*
X135390000Y-57850000D02*
X136239999Y-58699999D01*
X136249999Y-58699999D02*
X136700000Y-59150000D01*
G04 #@! TD*
D15*
G04 #@! TO.N,GND*
G36*
X138134452Y-57237613D02*
X140201886Y-57604018D01*
X142237831Y-58117301D01*
X144231868Y-58774836D01*
X146173789Y-59573256D01*
X148053655Y-60508475D01*
X149861845Y-61575707D01*
X151589103Y-62769488D01*
X153226588Y-64083709D01*
X154765919Y-65511642D01*
X156199217Y-67045980D01*
X157519145Y-68678867D01*
X158718949Y-70401947D01*
X159792486Y-72206401D01*
X160734261Y-74082991D01*
X161539455Y-76022114D01*
X162203947Y-78013843D01*
X162724334Y-80047984D01*
X163097953Y-82114126D01*
X163322892Y-84201693D01*
X163398000Y-86300000D01*
X163349336Y-87989389D01*
X163153565Y-90079893D01*
X162808830Y-92151050D01*
X162316895Y-94192259D01*
X161680278Y-96193072D01*
X160902236Y-98143247D01*
X159986754Y-100032804D01*
X158938516Y-101852071D01*
X157762887Y-103591735D01*
X156465886Y-105242892D01*
X155054150Y-106797092D01*
X153534906Y-108246378D01*
X151915930Y-109583334D01*
X150205509Y-110801115D01*
X148412396Y-111893489D01*
X146545771Y-112854864D01*
X144615186Y-113680320D01*
X142630525Y-114365632D01*
X140601944Y-114907292D01*
X138539828Y-115302527D01*
X136454731Y-115549314D01*
X134357326Y-115646391D01*
X132258347Y-115593260D01*
X130168539Y-115390194D01*
X128098598Y-115038231D01*
X126059119Y-114539174D01*
X124060541Y-113895576D01*
X122113093Y-113110732D01*
X120226743Y-112188659D01*
X118411147Y-111134077D01*
X116675597Y-109952383D01*
X115028977Y-108649626D01*
X113479715Y-107232474D01*
X112035740Y-105708181D01*
X110704444Y-104084548D01*
X109492641Y-102369885D01*
X108406533Y-100572971D01*
X107451679Y-98703001D01*
X106632967Y-96769547D01*
X105954587Y-94782505D01*
X105420012Y-92752046D01*
X105031978Y-90688563D01*
X104792470Y-88602618D01*
X104702715Y-86504886D01*
X104763172Y-84406106D01*
X104973532Y-82317019D01*
X105332718Y-80248320D01*
X105838892Y-78210595D01*
X106489462Y-76214275D01*
X107281099Y-74269579D01*
X108209751Y-72386459D01*
X109270664Y-70574555D01*
X110458409Y-68843141D01*
X111766906Y-67201078D01*
X113189457Y-65656772D01*
X114718782Y-64218127D01*
X116347052Y-62892507D01*
X118065934Y-61686696D01*
X119866629Y-60606867D01*
X121739920Y-59658547D01*
X123676220Y-58846589D01*
X125665618Y-58175149D01*
X127697930Y-57647665D01*
X128557285Y-57489169D01*
X127476617Y-61919907D01*
X127473000Y-61950000D01*
X127482667Y-61998601D01*
X127510197Y-62039803D01*
X127551399Y-62067333D01*
X127600000Y-62077000D01*
X132573001Y-62077000D01*
X132573001Y-62354526D01*
X132573000Y-62354530D01*
X132573000Y-63073000D01*
X117530874Y-63073000D01*
X117100048Y-63158697D01*
X116611487Y-63485142D01*
X116285042Y-63973703D01*
X116170409Y-64550000D01*
X116285042Y-65126297D01*
X116611487Y-65614858D01*
X117100048Y-65941303D01*
X117530874Y-66027000D01*
X132573000Y-66027000D01*
X132573000Y-66573000D01*
X114051693Y-66573000D01*
X113620867Y-66658697D01*
X113132306Y-66985142D01*
X112805861Y-67473703D01*
X112691228Y-68050000D01*
X112805861Y-68626297D01*
X113132306Y-69114858D01*
X113620867Y-69441303D01*
X114051693Y-69527000D01*
X132573000Y-69527000D01*
X132573000Y-70073000D01*
X111568137Y-70073000D01*
X111137311Y-70158697D01*
X110648750Y-70485142D01*
X110322305Y-70973703D01*
X110207672Y-71550000D01*
X110322305Y-72126297D01*
X110648750Y-72614858D01*
X111137311Y-72941303D01*
X111568137Y-73027000D01*
X132573000Y-73027000D01*
X132573000Y-73573000D01*
X109783080Y-73573000D01*
X109352254Y-73658697D01*
X108863693Y-73985142D01*
X108537248Y-74473703D01*
X108422615Y-75050000D01*
X108537248Y-75626297D01*
X108863693Y-76114858D01*
X109352254Y-76441303D01*
X109783080Y-76527000D01*
X132573000Y-76527000D01*
X132573000Y-77073000D01*
X108554575Y-77073000D01*
X108123749Y-77158697D01*
X107635188Y-77485142D01*
X107308743Y-77973703D01*
X107194110Y-78550000D01*
X107308743Y-79126297D01*
X107635188Y-79614858D01*
X108123749Y-79941303D01*
X108554575Y-80027000D01*
X132573000Y-80027000D01*
X132573000Y-80573000D01*
X107807181Y-80573000D01*
X107376355Y-80658697D01*
X106887794Y-80985142D01*
X106561349Y-81473703D01*
X106446716Y-82050000D01*
X106561349Y-82626297D01*
X106887794Y-83114858D01*
X107376355Y-83441303D01*
X107807181Y-83527000D01*
X132573000Y-83527000D01*
X132573000Y-84073000D01*
X107501741Y-84073000D01*
X107070915Y-84158697D01*
X106582354Y-84485142D01*
X106255909Y-84973703D01*
X106141276Y-85550000D01*
X106255909Y-86126297D01*
X106582354Y-86614858D01*
X107070915Y-86941303D01*
X107501741Y-87027000D01*
X132573000Y-87027000D01*
X132573000Y-87573000D01*
X107623510Y-87573000D01*
X107192684Y-87658697D01*
X106704123Y-87985142D01*
X106377678Y-88473703D01*
X106263045Y-89050000D01*
X106377678Y-89626297D01*
X106704123Y-90114858D01*
X107192684Y-90441303D01*
X107623510Y-90527000D01*
X132573001Y-90527000D01*
X132573001Y-91073000D01*
X108178282Y-91073000D01*
X107747456Y-91158697D01*
X107258895Y-91485142D01*
X106932450Y-91973703D01*
X106817817Y-92550000D01*
X106932450Y-93126297D01*
X107258895Y-93614858D01*
X107747456Y-93941303D01*
X108178282Y-94027000D01*
X132573001Y-94027000D01*
X132573001Y-94573000D01*
X109193883Y-94573000D01*
X108763057Y-94658697D01*
X108274496Y-94985142D01*
X107948051Y-95473703D01*
X107833418Y-96050000D01*
X107948051Y-96626297D01*
X108274496Y-97114858D01*
X108763057Y-97441303D01*
X109193883Y-97527000D01*
X132573001Y-97527000D01*
X132573001Y-98073000D01*
X110727965Y-98073000D01*
X110297139Y-98158697D01*
X109808578Y-98485142D01*
X109482133Y-98973703D01*
X109367500Y-99550000D01*
X109482133Y-100126297D01*
X109808578Y-100614858D01*
X110297139Y-100941303D01*
X110727965Y-101027000D01*
X132573001Y-101027000D01*
X132573001Y-101573000D01*
X112888160Y-101573000D01*
X112457334Y-101658697D01*
X111968773Y-101985142D01*
X111642328Y-102473703D01*
X111527695Y-103050000D01*
X111642328Y-103626297D01*
X111968773Y-104114858D01*
X112457334Y-104441303D01*
X112888160Y-104527000D01*
X132573001Y-104527000D01*
X132573001Y-105073000D01*
X115886297Y-105073000D01*
X115455471Y-105158697D01*
X114966910Y-105485142D01*
X114640465Y-105973703D01*
X114525832Y-106550000D01*
X114640465Y-107126297D01*
X114966910Y-107614858D01*
X115455471Y-107941303D01*
X115886297Y-108027000D01*
X132573001Y-108027000D01*
X132573001Y-108573000D01*
X120229543Y-108573000D01*
X119798717Y-108658697D01*
X119310156Y-108985142D01*
X118983711Y-109473703D01*
X118869078Y-110050000D01*
X118983711Y-110626297D01*
X119310156Y-111114858D01*
X119798717Y-111441303D01*
X120229543Y-111527000D01*
X132573001Y-111527000D01*
X132573001Y-113645471D01*
X132658698Y-114076297D01*
X132985143Y-114564858D01*
X133473704Y-114891303D01*
X134050000Y-115005936D01*
X134626297Y-114891303D01*
X135114858Y-114564858D01*
X135441303Y-114076297D01*
X135527000Y-113645471D01*
X135527000Y-113277000D01*
X144790282Y-113277000D01*
X145221108Y-113191303D01*
X145709669Y-112864858D01*
X146036114Y-112376297D01*
X146150747Y-111800000D01*
X146036114Y-111223703D01*
X145709669Y-110735142D01*
X145221108Y-110408697D01*
X144790282Y-110323000D01*
X135527000Y-110323000D01*
X135527000Y-110195471D01*
X135555936Y-110050000D01*
X135527000Y-109904529D01*
X135527000Y-109777000D01*
X150317442Y-109777000D01*
X150748268Y-109691303D01*
X151236829Y-109364858D01*
X151563274Y-108876297D01*
X151677907Y-108300000D01*
X151563274Y-107723703D01*
X151236829Y-107235142D01*
X150748268Y-106908697D01*
X150317442Y-106823000D01*
X135527000Y-106823000D01*
X135527000Y-106695471D01*
X135555936Y-106550000D01*
X135527000Y-106404529D01*
X135527000Y-106277000D01*
X153887964Y-106277000D01*
X154318790Y-106191303D01*
X154807351Y-105864858D01*
X155133796Y-105376297D01*
X155248429Y-104800000D01*
X155133796Y-104223703D01*
X154807351Y-103735142D01*
X154318790Y-103408697D01*
X153887964Y-103323000D01*
X135527000Y-103323000D01*
X135527000Y-103195471D01*
X135555936Y-103050000D01*
X135527000Y-102904529D01*
X135527000Y-102777000D01*
X156429924Y-102777000D01*
X156860750Y-102691303D01*
X157349311Y-102364858D01*
X157675756Y-101876297D01*
X157790389Y-101300000D01*
X157675756Y-100723703D01*
X157349311Y-100235142D01*
X156860750Y-99908697D01*
X156429924Y-99823000D01*
X135527000Y-99823000D01*
X135527000Y-99695471D01*
X135555936Y-99550000D01*
X135527000Y-99404529D01*
X135527000Y-99277000D01*
X158259067Y-99277000D01*
X158689893Y-99191303D01*
X159178454Y-98864858D01*
X159504899Y-98376297D01*
X159619532Y-97800000D01*
X159504899Y-97223703D01*
X159178454Y-96735142D01*
X158689893Y-96408697D01*
X158259067Y-96323000D01*
X135527000Y-96323000D01*
X135527000Y-96195471D01*
X135555936Y-96050000D01*
X135527000Y-95904529D01*
X135527000Y-95777000D01*
X159524275Y-95777000D01*
X159955101Y-95691303D01*
X160443662Y-95364858D01*
X160770107Y-94876297D01*
X160884740Y-94300000D01*
X160770107Y-93723703D01*
X160443662Y-93235142D01*
X159955101Y-92908697D01*
X159524275Y-92823000D01*
X135527000Y-92823000D01*
X135527000Y-92695471D01*
X135555936Y-92550000D01*
X135527000Y-92404529D01*
X135527000Y-92277000D01*
X160304399Y-92277000D01*
X160735225Y-92191303D01*
X161223786Y-91864858D01*
X161550231Y-91376297D01*
X161664864Y-90800000D01*
X161550231Y-90223703D01*
X161223786Y-89735142D01*
X160735225Y-89408697D01*
X160304399Y-89323000D01*
X135527000Y-89323000D01*
X135527000Y-89195471D01*
X135555936Y-89050000D01*
X135527000Y-88904529D01*
X135527000Y-88777000D01*
X160640664Y-88777000D01*
X161071490Y-88691303D01*
X161560051Y-88364858D01*
X161886496Y-87876297D01*
X162001129Y-87300000D01*
X161886496Y-86723703D01*
X161560051Y-86235142D01*
X161071490Y-85908697D01*
X160640664Y-85823000D01*
X135527000Y-85823000D01*
X135527000Y-85695471D01*
X135555936Y-85550000D01*
X135527000Y-85404529D01*
X135527000Y-85277000D01*
X160549363Y-85277000D01*
X160980189Y-85191303D01*
X161468750Y-84864858D01*
X161795195Y-84376297D01*
X161909828Y-83800000D01*
X161795195Y-83223703D01*
X161468750Y-82735142D01*
X160980189Y-82408697D01*
X160549363Y-82323000D01*
X135527000Y-82323000D01*
X135527000Y-82195471D01*
X135555936Y-82050000D01*
X135527000Y-81904529D01*
X135527000Y-81777000D01*
X160026155Y-81777000D01*
X160456981Y-81691303D01*
X160945542Y-81364858D01*
X161271987Y-80876297D01*
X161386620Y-80300000D01*
X161271987Y-79723703D01*
X160945542Y-79235142D01*
X160456981Y-78908697D01*
X160026155Y-78823000D01*
X135527000Y-78823000D01*
X135527000Y-78695471D01*
X135555936Y-78550000D01*
X135527000Y-78404529D01*
X135527000Y-78277000D01*
X159044955Y-78277000D01*
X159475781Y-78191303D01*
X159964342Y-77864858D01*
X160290787Y-77376297D01*
X160405420Y-76800000D01*
X160290787Y-76223703D01*
X159964342Y-75735142D01*
X159475781Y-75408697D01*
X159044955Y-75323000D01*
X135527000Y-75323000D01*
X135527000Y-75195471D01*
X135555936Y-75050000D01*
X135527000Y-74904529D01*
X135527000Y-74777000D01*
X157550701Y-74777000D01*
X157981527Y-74691303D01*
X158470088Y-74364858D01*
X158796533Y-73876297D01*
X158911166Y-73300000D01*
X158796533Y-72723703D01*
X158470088Y-72235142D01*
X157981527Y-71908697D01*
X157550701Y-71823000D01*
X135527000Y-71823000D01*
X135527000Y-71695471D01*
X135555936Y-71550000D01*
X135527000Y-71404529D01*
X135527000Y-71277000D01*
X155440489Y-71277000D01*
X155871315Y-71191303D01*
X156359876Y-70864858D01*
X156686321Y-70376297D01*
X156800954Y-69800000D01*
X156686321Y-69223703D01*
X156359876Y-68735142D01*
X155871315Y-68408697D01*
X155440489Y-68323000D01*
X135527000Y-68323000D01*
X135527000Y-68195471D01*
X135555936Y-68050000D01*
X135527000Y-67904529D01*
X135527000Y-67777000D01*
X152513371Y-67777000D01*
X152944197Y-67691303D01*
X153432758Y-67364858D01*
X153759203Y-66876297D01*
X153873836Y-66300000D01*
X153759203Y-65723703D01*
X153432758Y-65235142D01*
X152944197Y-64908697D01*
X152513371Y-64823000D01*
X135527000Y-64823000D01*
X135527000Y-64695471D01*
X135555936Y-64550000D01*
X135527000Y-64404529D01*
X135527000Y-64277000D01*
X148298295Y-64277000D01*
X148729121Y-64191303D01*
X149217682Y-63864858D01*
X149544127Y-63376297D01*
X149658760Y-62800000D01*
X149544127Y-62223703D01*
X149217682Y-61735142D01*
X148729121Y-61408697D01*
X148298295Y-61323000D01*
X135527000Y-61323000D01*
X135527000Y-60254529D01*
X135441303Y-59823703D01*
X135416604Y-59786739D01*
X135361611Y-59510267D01*
X135177000Y-59233976D01*
X135177000Y-59215540D01*
X135263000Y-59170155D01*
X135263000Y-57977000D01*
X135517000Y-57977000D01*
X135517000Y-59170155D01*
X135746890Y-59291476D01*
X136156924Y-59121645D01*
X136585183Y-58731358D01*
X136831486Y-58206892D01*
X136710819Y-57977000D01*
X135517000Y-57977000D01*
X135263000Y-57977000D01*
X135243000Y-57977000D01*
X135243000Y-57723000D01*
X135263000Y-57723000D01*
X135263000Y-57703000D01*
X135517000Y-57703000D01*
X135517000Y-57723000D01*
X136710819Y-57723000D01*
X136831486Y-57493108D01*
X136638267Y-57081678D01*
X138134452Y-57237613D01*
X138134452Y-57237613D01*
G37*
X138134452Y-57237613D02*
X140201886Y-57604018D01*
X142237831Y-58117301D01*
X144231868Y-58774836D01*
X146173789Y-59573256D01*
X148053655Y-60508475D01*
X149861845Y-61575707D01*
X151589103Y-62769488D01*
X153226588Y-64083709D01*
X154765919Y-65511642D01*
X156199217Y-67045980D01*
X157519145Y-68678867D01*
X158718949Y-70401947D01*
X159792486Y-72206401D01*
X160734261Y-74082991D01*
X161539455Y-76022114D01*
X162203947Y-78013843D01*
X162724334Y-80047984D01*
X163097953Y-82114126D01*
X163322892Y-84201693D01*
X163398000Y-86300000D01*
X163349336Y-87989389D01*
X163153565Y-90079893D01*
X162808830Y-92151050D01*
X162316895Y-94192259D01*
X161680278Y-96193072D01*
X160902236Y-98143247D01*
X159986754Y-100032804D01*
X158938516Y-101852071D01*
X157762887Y-103591735D01*
X156465886Y-105242892D01*
X155054150Y-106797092D01*
X153534906Y-108246378D01*
X151915930Y-109583334D01*
X150205509Y-110801115D01*
X148412396Y-111893489D01*
X146545771Y-112854864D01*
X144615186Y-113680320D01*
X142630525Y-114365632D01*
X140601944Y-114907292D01*
X138539828Y-115302527D01*
X136454731Y-115549314D01*
X134357326Y-115646391D01*
X132258347Y-115593260D01*
X130168539Y-115390194D01*
X128098598Y-115038231D01*
X126059119Y-114539174D01*
X124060541Y-113895576D01*
X122113093Y-113110732D01*
X120226743Y-112188659D01*
X118411147Y-111134077D01*
X116675597Y-109952383D01*
X115028977Y-108649626D01*
X113479715Y-107232474D01*
X112035740Y-105708181D01*
X110704444Y-104084548D01*
X109492641Y-102369885D01*
X108406533Y-100572971D01*
X107451679Y-98703001D01*
X106632967Y-96769547D01*
X105954587Y-94782505D01*
X105420012Y-92752046D01*
X105031978Y-90688563D01*
X104792470Y-88602618D01*
X104702715Y-86504886D01*
X104763172Y-84406106D01*
X104973532Y-82317019D01*
X105332718Y-80248320D01*
X105838892Y-78210595D01*
X106489462Y-76214275D01*
X107281099Y-74269579D01*
X108209751Y-72386459D01*
X109270664Y-70574555D01*
X110458409Y-68843141D01*
X111766906Y-67201078D01*
X113189457Y-65656772D01*
X114718782Y-64218127D01*
X116347052Y-62892507D01*
X118065934Y-61686696D01*
X119866629Y-60606867D01*
X121739920Y-59658547D01*
X123676220Y-58846589D01*
X125665618Y-58175149D01*
X127697930Y-57647665D01*
X128557285Y-57489169D01*
X127476617Y-61919907D01*
X127473000Y-61950000D01*
X127482667Y-61998601D01*
X127510197Y-62039803D01*
X127551399Y-62067333D01*
X127600000Y-62077000D01*
X132573001Y-62077000D01*
X132573001Y-62354526D01*
X132573000Y-62354530D01*
X132573000Y-63073000D01*
X117530874Y-63073000D01*
X117100048Y-63158697D01*
X116611487Y-63485142D01*
X116285042Y-63973703D01*
X116170409Y-64550000D01*
X116285042Y-65126297D01*
X116611487Y-65614858D01*
X117100048Y-65941303D01*
X117530874Y-66027000D01*
X132573000Y-66027000D01*
X132573000Y-66573000D01*
X114051693Y-66573000D01*
X113620867Y-66658697D01*
X113132306Y-66985142D01*
X112805861Y-67473703D01*
X112691228Y-68050000D01*
X112805861Y-68626297D01*
X113132306Y-69114858D01*
X113620867Y-69441303D01*
X114051693Y-69527000D01*
X132573000Y-69527000D01*
X132573000Y-70073000D01*
X111568137Y-70073000D01*
X111137311Y-70158697D01*
X110648750Y-70485142D01*
X110322305Y-70973703D01*
X110207672Y-71550000D01*
X110322305Y-72126297D01*
X110648750Y-72614858D01*
X111137311Y-72941303D01*
X111568137Y-73027000D01*
X132573000Y-73027000D01*
X132573000Y-73573000D01*
X109783080Y-73573000D01*
X109352254Y-73658697D01*
X108863693Y-73985142D01*
X108537248Y-74473703D01*
X108422615Y-75050000D01*
X108537248Y-75626297D01*
X108863693Y-76114858D01*
X109352254Y-76441303D01*
X109783080Y-76527000D01*
X132573000Y-76527000D01*
X132573000Y-77073000D01*
X108554575Y-77073000D01*
X108123749Y-77158697D01*
X107635188Y-77485142D01*
X107308743Y-77973703D01*
X107194110Y-78550000D01*
X107308743Y-79126297D01*
X107635188Y-79614858D01*
X108123749Y-79941303D01*
X108554575Y-80027000D01*
X132573000Y-80027000D01*
X132573000Y-80573000D01*
X107807181Y-80573000D01*
X107376355Y-80658697D01*
X106887794Y-80985142D01*
X106561349Y-81473703D01*
X106446716Y-82050000D01*
X106561349Y-82626297D01*
X106887794Y-83114858D01*
X107376355Y-83441303D01*
X107807181Y-83527000D01*
X132573000Y-83527000D01*
X132573000Y-84073000D01*
X107501741Y-84073000D01*
X107070915Y-84158697D01*
X106582354Y-84485142D01*
X106255909Y-84973703D01*
X106141276Y-85550000D01*
X106255909Y-86126297D01*
X106582354Y-86614858D01*
X107070915Y-86941303D01*
X107501741Y-87027000D01*
X132573000Y-87027000D01*
X132573000Y-87573000D01*
X107623510Y-87573000D01*
X107192684Y-87658697D01*
X106704123Y-87985142D01*
X106377678Y-88473703D01*
X106263045Y-89050000D01*
X106377678Y-89626297D01*
X106704123Y-90114858D01*
X107192684Y-90441303D01*
X107623510Y-90527000D01*
X132573001Y-90527000D01*
X132573001Y-91073000D01*
X108178282Y-91073000D01*
X107747456Y-91158697D01*
X107258895Y-91485142D01*
X106932450Y-91973703D01*
X106817817Y-92550000D01*
X106932450Y-93126297D01*
X107258895Y-93614858D01*
X107747456Y-93941303D01*
X108178282Y-94027000D01*
X132573001Y-94027000D01*
X132573001Y-94573000D01*
X109193883Y-94573000D01*
X108763057Y-94658697D01*
X108274496Y-94985142D01*
X107948051Y-95473703D01*
X107833418Y-96050000D01*
X107948051Y-96626297D01*
X108274496Y-97114858D01*
X108763057Y-97441303D01*
X109193883Y-97527000D01*
X132573001Y-97527000D01*
X132573001Y-98073000D01*
X110727965Y-98073000D01*
X110297139Y-98158697D01*
X109808578Y-98485142D01*
X109482133Y-98973703D01*
X109367500Y-99550000D01*
X109482133Y-100126297D01*
X109808578Y-100614858D01*
X110297139Y-100941303D01*
X110727965Y-101027000D01*
X132573001Y-101027000D01*
X132573001Y-101573000D01*
X112888160Y-101573000D01*
X112457334Y-101658697D01*
X111968773Y-101985142D01*
X111642328Y-102473703D01*
X111527695Y-103050000D01*
X111642328Y-103626297D01*
X111968773Y-104114858D01*
X112457334Y-104441303D01*
X112888160Y-104527000D01*
X132573001Y-104527000D01*
X132573001Y-105073000D01*
X115886297Y-105073000D01*
X115455471Y-105158697D01*
X114966910Y-105485142D01*
X114640465Y-105973703D01*
X114525832Y-106550000D01*
X114640465Y-107126297D01*
X114966910Y-107614858D01*
X115455471Y-107941303D01*
X115886297Y-108027000D01*
X132573001Y-108027000D01*
X132573001Y-108573000D01*
X120229543Y-108573000D01*
X119798717Y-108658697D01*
X119310156Y-108985142D01*
X118983711Y-109473703D01*
X118869078Y-110050000D01*
X118983711Y-110626297D01*
X119310156Y-111114858D01*
X119798717Y-111441303D01*
X120229543Y-111527000D01*
X132573001Y-111527000D01*
X132573001Y-113645471D01*
X132658698Y-114076297D01*
X132985143Y-114564858D01*
X133473704Y-114891303D01*
X134050000Y-115005936D01*
X134626297Y-114891303D01*
X135114858Y-114564858D01*
X135441303Y-114076297D01*
X135527000Y-113645471D01*
X135527000Y-113277000D01*
X144790282Y-113277000D01*
X145221108Y-113191303D01*
X145709669Y-112864858D01*
X146036114Y-112376297D01*
X146150747Y-111800000D01*
X146036114Y-111223703D01*
X145709669Y-110735142D01*
X145221108Y-110408697D01*
X144790282Y-110323000D01*
X135527000Y-110323000D01*
X135527000Y-110195471D01*
X135555936Y-110050000D01*
X135527000Y-109904529D01*
X135527000Y-109777000D01*
X150317442Y-109777000D01*
X150748268Y-109691303D01*
X151236829Y-109364858D01*
X151563274Y-108876297D01*
X151677907Y-108300000D01*
X151563274Y-107723703D01*
X151236829Y-107235142D01*
X150748268Y-106908697D01*
X150317442Y-106823000D01*
X135527000Y-106823000D01*
X135527000Y-106695471D01*
X135555936Y-106550000D01*
X135527000Y-106404529D01*
X135527000Y-106277000D01*
X153887964Y-106277000D01*
X154318790Y-106191303D01*
X154807351Y-105864858D01*
X155133796Y-105376297D01*
X155248429Y-104800000D01*
X155133796Y-104223703D01*
X154807351Y-103735142D01*
X154318790Y-103408697D01*
X153887964Y-103323000D01*
X135527000Y-103323000D01*
X135527000Y-103195471D01*
X135555936Y-103050000D01*
X135527000Y-102904529D01*
X135527000Y-102777000D01*
X156429924Y-102777000D01*
X156860750Y-102691303D01*
X157349311Y-102364858D01*
X157675756Y-101876297D01*
X157790389Y-101300000D01*
X157675756Y-100723703D01*
X157349311Y-100235142D01*
X156860750Y-99908697D01*
X156429924Y-99823000D01*
X135527000Y-99823000D01*
X135527000Y-99695471D01*
X135555936Y-99550000D01*
X135527000Y-99404529D01*
X135527000Y-99277000D01*
X158259067Y-99277000D01*
X158689893Y-99191303D01*
X159178454Y-98864858D01*
X159504899Y-98376297D01*
X159619532Y-97800000D01*
X159504899Y-97223703D01*
X159178454Y-96735142D01*
X158689893Y-96408697D01*
X158259067Y-96323000D01*
X135527000Y-96323000D01*
X135527000Y-96195471D01*
X135555936Y-96050000D01*
X135527000Y-95904529D01*
X135527000Y-95777000D01*
X159524275Y-95777000D01*
X159955101Y-95691303D01*
X160443662Y-95364858D01*
X160770107Y-94876297D01*
X160884740Y-94300000D01*
X160770107Y-93723703D01*
X160443662Y-93235142D01*
X159955101Y-92908697D01*
X159524275Y-92823000D01*
X135527000Y-92823000D01*
X135527000Y-92695471D01*
X135555936Y-92550000D01*
X135527000Y-92404529D01*
X135527000Y-92277000D01*
X160304399Y-92277000D01*
X160735225Y-92191303D01*
X161223786Y-91864858D01*
X161550231Y-91376297D01*
X161664864Y-90800000D01*
X161550231Y-90223703D01*
X161223786Y-89735142D01*
X160735225Y-89408697D01*
X160304399Y-89323000D01*
X135527000Y-89323000D01*
X135527000Y-89195471D01*
X135555936Y-89050000D01*
X135527000Y-88904529D01*
X135527000Y-88777000D01*
X160640664Y-88777000D01*
X161071490Y-88691303D01*
X161560051Y-88364858D01*
X161886496Y-87876297D01*
X162001129Y-87300000D01*
X161886496Y-86723703D01*
X161560051Y-86235142D01*
X161071490Y-85908697D01*
X160640664Y-85823000D01*
X135527000Y-85823000D01*
X135527000Y-85695471D01*
X135555936Y-85550000D01*
X135527000Y-85404529D01*
X135527000Y-85277000D01*
X160549363Y-85277000D01*
X160980189Y-85191303D01*
X161468750Y-84864858D01*
X161795195Y-84376297D01*
X161909828Y-83800000D01*
X161795195Y-83223703D01*
X161468750Y-82735142D01*
X160980189Y-82408697D01*
X160549363Y-82323000D01*
X135527000Y-82323000D01*
X135527000Y-82195471D01*
X135555936Y-82050000D01*
X135527000Y-81904529D01*
X135527000Y-81777000D01*
X160026155Y-81777000D01*
X160456981Y-81691303D01*
X160945542Y-81364858D01*
X161271987Y-80876297D01*
X161386620Y-80300000D01*
X161271987Y-79723703D01*
X160945542Y-79235142D01*
X160456981Y-78908697D01*
X160026155Y-78823000D01*
X135527000Y-78823000D01*
X135527000Y-78695471D01*
X135555936Y-78550000D01*
X135527000Y-78404529D01*
X135527000Y-78277000D01*
X159044955Y-78277000D01*
X159475781Y-78191303D01*
X159964342Y-77864858D01*
X160290787Y-77376297D01*
X160405420Y-76800000D01*
X160290787Y-76223703D01*
X159964342Y-75735142D01*
X159475781Y-75408697D01*
X159044955Y-75323000D01*
X135527000Y-75323000D01*
X135527000Y-75195471D01*
X135555936Y-75050000D01*
X135527000Y-74904529D01*
X135527000Y-74777000D01*
X157550701Y-74777000D01*
X157981527Y-74691303D01*
X158470088Y-74364858D01*
X158796533Y-73876297D01*
X158911166Y-73300000D01*
X158796533Y-72723703D01*
X158470088Y-72235142D01*
X157981527Y-71908697D01*
X157550701Y-71823000D01*
X135527000Y-71823000D01*
X135527000Y-71695471D01*
X135555936Y-71550000D01*
X135527000Y-71404529D01*
X135527000Y-71277000D01*
X155440489Y-71277000D01*
X155871315Y-71191303D01*
X156359876Y-70864858D01*
X156686321Y-70376297D01*
X156800954Y-69800000D01*
X156686321Y-69223703D01*
X156359876Y-68735142D01*
X155871315Y-68408697D01*
X155440489Y-68323000D01*
X135527000Y-68323000D01*
X135527000Y-68195471D01*
X135555936Y-68050000D01*
X135527000Y-67904529D01*
X135527000Y-67777000D01*
X152513371Y-67777000D01*
X152944197Y-67691303D01*
X153432758Y-67364858D01*
X153759203Y-66876297D01*
X153873836Y-66300000D01*
X153759203Y-65723703D01*
X153432758Y-65235142D01*
X152944197Y-64908697D01*
X152513371Y-64823000D01*
X135527000Y-64823000D01*
X135527000Y-64695471D01*
X135555936Y-64550000D01*
X135527000Y-64404529D01*
X135527000Y-64277000D01*
X148298295Y-64277000D01*
X148729121Y-64191303D01*
X149217682Y-63864858D01*
X149544127Y-63376297D01*
X149658760Y-62800000D01*
X149544127Y-62223703D01*
X149217682Y-61735142D01*
X148729121Y-61408697D01*
X148298295Y-61323000D01*
X135527000Y-61323000D01*
X135527000Y-60254529D01*
X135441303Y-59823703D01*
X135416604Y-59786739D01*
X135361611Y-59510267D01*
X135177000Y-59233976D01*
X135177000Y-59215540D01*
X135263000Y-59170155D01*
X135263000Y-57977000D01*
X135517000Y-57977000D01*
X135517000Y-59170155D01*
X135746890Y-59291476D01*
X136156924Y-59121645D01*
X136585183Y-58731358D01*
X136831486Y-58206892D01*
X136710819Y-57977000D01*
X135517000Y-57977000D01*
X135263000Y-57977000D01*
X135243000Y-57977000D01*
X135243000Y-57723000D01*
X135263000Y-57723000D01*
X135263000Y-57703000D01*
X135517000Y-57703000D01*
X135517000Y-57723000D01*
X136710819Y-57723000D01*
X136831486Y-57493108D01*
X136638267Y-57081678D01*
X138134452Y-57237613D01*
G04 #@! TD*
M02*
